<svg width="256" height="133" viewBox="0 0 256 133" fill="none" xmlns="http://www.w3.org/2000/svg">
<path d="M12.55 111.71C12.29 110.95 11.82 110.39 11.33 109.99C10.5 109.36 9.61004 109.3 8.84999 109.3C8.01999 109.3 6.97 109.43 6.07 110.22C5.41 110.81 4.90999 111.81 4.90999 112.83C4.90999 113.52 5.16999 114.25 5.83999 114.85C6.26999 115.25 7.22999 115.78 7.68999 116.01L9.67004 116.94C10.69 117.4 11.68 118 12.48 118.82C13.73 120.11 13.9699 121.26 13.9699 122.69C13.9699 123.98 13.74 125.99 12.12 127.68C10.27 129.6 7.95999 129.79 6.40999 129.79C4.62999 129.79 3.16999 129.46 1.84999 128.14C0.889994 127.15 0.17 125.7 0 124.11L2.43999 123.45C2.50999 124.57 2.93999 125.6 3.62999 126.32C4.58999 127.31 5.67999 127.48 6.76999 127.48C7.82999 127.48 9.18 127.31 10.21 126.26C11.04 125.4 11.4 124.11 11.4 123.06C11.4 121.74 10.81 120.78 10.21 120.25C9.78004 119.85 8.75999 119.26 8.05999 118.93L6.30999 118.1C5.71999 117.84 4.42999 117.17 3.69999 116.41C3.10999 115.78 2.43999 114.73 2.43999 113.01C2.43999 111.46 2.89999 110.07 4.15999 108.85C5.54999 107.5 7.16999 107 9.01999 107C9.98004 107 11.4599 107.13 12.65 107.92C13.5099 108.48 14.24 109.41 14.63 110.43L12.55 111.71Z" fill="#2D2A2E"/>
<path d="M24.9995 107.35C27.2495 107.35 29.1995 107.94 30.3195 109.04C31.2095 109.9 31.8395 111.35 31.8395 113.2C31.8395 115.35 31.0095 116.97 30.0595 117.89C29.1395 118.78 27.3495 119.81 23.8195 119.81H21.9395L20.7495 129.39H18.3095L21.0195 107.36H24.9995V107.35ZM22.1895 117.49H24.2695C25.4595 117.49 27.0795 117.36 28.2295 116.3C28.8895 115.71 29.4195 114.71 29.4195 113.26C29.4195 111.77 28.8295 110.91 28.1995 110.45C27.3095 109.76 25.9495 109.66 24.9595 109.66H23.1395L22.1895 117.49Z" fill="#2D2A2E"/>
<path d="M48.3198 110.52H39.5298L38.8698 116.1H47.3898L46.9898 119.27H38.4698L37.6098 126.21H46.3998L45.9998 129.38H33.8398L36.5498 107.35H48.7098L48.3198 110.52Z" fill="#2D2A2E"/>
<path d="M65.4995 110.52H56.7095L56.0495 116.1H64.5695L64.1695 119.27H55.6495L54.7895 126.21H63.5795L63.1795 129.38H51.0195L53.7295 107.35H65.8895L65.4995 110.52Z" fill="#2D2A2E"/>
<path d="M77.0203 107.35C79.3003 107.35 82.9704 107.68 85.4404 110.16C86.8904 111.61 88.0804 114.03 88.0804 117.49C88.0804 122.54 85.7704 125.29 84.6404 126.34C82.1004 128.75 78.6303 129.38 74.6303 129.38H67.8604L70.5704 107.35H77.0203ZM73.4903 125.09H75.0404C76.5304 125.09 78.8704 124.99 80.6604 123.4C81.9204 122.28 82.8704 120.23 82.8704 117.62C82.8704 115.67 82.2403 114.12 81.2803 113.19C80.2203 112.17 78.4104 111.64 76.6904 111.64H75.1404L73.4903 125.09Z" fill="#2D2A2E"/>
<path d="M96.1802 119.11L89.7402 107.35H95.5502L99.1502 114.19L104.4 107.35H110.61L101.26 119.11L100.01 129.38H94.9202L96.1802 119.11Z" fill="#2D2A2E"/>
<path d="M121.39 119.74L120.2 129.39H114.62L115.84 119.58L110.22 107.36H116.4L117.92 110.9C118.81 113.01 118.88 113.15 119.11 113.87C119.18 114.04 119.24 114.3 119.34 114.6C119.64 114.04 119.93 113.58 120.43 112.85L124.23 107.37H131L121.39 119.74Z" fill="#2D2A2E"/>
<path d="M107.838 51.097L156.77 50.734C168.918 50.646 178.838 60.4034 178.927 72.5259C179.015 84.6483 169.238 94.5487 157.09 94.6367L108.157 94.9997C96.0098 95.0877 86.0888 85.3304 86.0006 73.2079C85.9124 61.0854 95.6901 51.185 107.838 51.097Z" fill="#F5BF00"/>
<path d="M108.003 94.9992C120.155 94.9992 130.006 85.1689 130.006 73.0424C130.006 60.916 120.155 51.0854 108.003 51.0854C95.8518 51.0854 86.0009 60.916 86.0009 73.0424C86.0009 85.1689 95.8518 94.9992 108.003 94.9992Z" fill="#2D2A2E"/>
<path d="M159.151 43.9141L110.219 44.2771C98.0712 44.3651 88.1502 34.6077 88.0621 22.4852C87.9739 10.3627 97.7515 0.462353 109.899 0.374349L158.832 0.0113328C170.98 -0.0766707 180.901 9.68072 180.989 21.8032C181.088 33.9257 171.311 43.8261 159.151 43.9141Z" fill="#F5BF00"/>
<path d="M158.997 43.9137C171.149 43.9137 181 34.0833 181 21.9569C181 9.83043 171.149 0 158.997 0C146.846 0 136.995 9.83043 136.995 21.9569C136.995 34.0833 146.846 43.9137 158.997 43.9137Z" fill="#2D2A2E"/>
<path d="M148.499 113.169C148.505 112.24 148.203 111.529 147.594 111.036C146.991 110.544 146.147 110.298 145.064 110.298C144.288 110.298 143.596 110.421 142.987 110.667C142.383 110.907 141.891 111.239 141.509 111.664C141.134 112.083 140.903 112.56 140.817 113.095C140.737 113.545 140.777 113.932 140.937 114.259C141.103 114.585 141.34 114.859 141.648 115.08C141.962 115.296 142.306 115.477 142.682 115.625C143.057 115.767 143.42 115.884 143.771 115.976L145.544 116.456C146.116 116.604 146.698 116.804 147.289 117.056C147.88 117.308 148.412 117.641 148.886 118.053C149.36 118.466 149.714 118.977 149.948 119.586C150.182 120.195 150.228 120.925 150.087 121.774C149.902 122.845 149.468 123.796 148.785 124.627C148.102 125.458 147.2 126.114 146.08 126.594C144.959 127.074 143.661 127.314 142.183 127.314C140.768 127.314 139.576 127.089 138.61 126.64C137.65 126.191 136.945 125.554 136.496 124.729C136.046 123.898 135.886 122.913 136.016 121.774H138.887C138.819 122.457 138.942 123.027 139.256 123.482C139.576 123.932 140.026 124.267 140.604 124.489C141.183 124.704 141.839 124.812 142.571 124.812C143.384 124.812 144.125 124.686 144.796 124.433C145.467 124.175 146.021 123.818 146.458 123.362C146.895 122.901 147.163 122.362 147.261 121.746C147.36 121.186 147.28 120.728 147.021 120.371C146.769 120.014 146.387 119.718 145.876 119.484C145.372 119.25 144.796 119.044 144.15 118.866L142.017 118.256C140.571 117.844 139.475 117.238 138.73 116.438C137.985 115.637 137.718 114.579 137.927 113.261C138.112 112.172 138.567 111.221 139.293 110.408C140.02 109.596 140.924 108.965 142.008 108.516C143.091 108.06 144.267 107.832 145.535 107.832C146.815 107.832 147.905 108.06 148.803 108.516C149.702 108.971 150.367 109.599 150.798 110.399C151.228 111.199 151.379 112.123 151.25 113.169H148.499ZM162.369 121.119L163.754 112.818H166.524L164.16 127H161.445L161.861 124.544H161.713C161.27 125.301 160.642 125.932 159.83 126.437C159.023 126.935 158.088 127.185 157.023 127.185C156.112 127.185 155.339 126.985 154.705 126.585C154.078 126.178 153.631 125.578 153.367 124.784C153.102 123.99 153.065 123.008 153.256 121.839L154.77 112.818H157.531L156.081 121.506C155.927 122.473 156.072 123.242 156.515 123.815C156.958 124.387 157.605 124.673 158.454 124.673C158.971 124.673 159.507 124.544 160.061 124.286C160.615 124.027 161.104 123.636 161.529 123.113C161.959 122.59 162.24 121.925 162.369 121.119ZM166.992 132.318L170.261 112.818H172.957L172.578 115.117H172.809C173.018 114.822 173.301 114.48 173.658 114.092C174.022 113.705 174.499 113.366 175.089 113.077C175.68 112.781 176.416 112.634 177.296 112.634C178.441 112.634 179.411 112.923 180.205 113.501C180.999 114.08 181.565 114.914 181.903 116.004C182.242 117.093 182.285 118.404 182.033 119.937C181.78 121.469 181.306 122.784 180.611 123.879C179.915 124.969 179.072 125.809 178.081 126.4C177.096 126.985 176.028 127.277 174.877 127.277C174.015 127.277 173.335 127.132 172.837 126.843C172.344 126.554 171.978 126.215 171.738 125.827C171.498 125.44 171.316 125.095 171.193 124.793H171.027L169.771 132.318H166.992ZM171.784 119.909C171.624 120.906 171.624 121.78 171.784 122.531C171.944 123.282 172.264 123.87 172.744 124.295C173.231 124.713 173.871 124.923 174.665 124.923C175.49 124.923 176.213 124.704 176.835 124.267C177.456 123.824 177.97 123.224 178.376 122.467C178.789 121.71 179.075 120.857 179.235 119.909C179.389 118.973 179.386 118.133 179.226 117.388C179.072 116.644 178.755 116.056 178.275 115.625C177.795 115.194 177.139 114.979 176.308 114.979C175.502 114.979 174.788 115.185 174.166 115.597C173.551 116.01 173.04 116.585 172.634 117.324C172.227 118.062 171.944 118.924 171.784 119.909ZM190.017 127.286C188.626 127.286 187.475 126.988 186.564 126.391C185.659 125.787 185.025 124.941 184.662 123.852C184.299 122.756 184.24 121.473 184.486 120.001C184.726 118.549 185.21 117.268 185.936 116.161C186.662 115.053 187.567 114.188 188.65 113.566C189.74 112.944 190.943 112.634 192.26 112.634C193.061 112.634 193.815 112.766 194.523 113.031C195.237 113.295 195.843 113.711 196.341 114.277C196.84 114.843 197.185 115.579 197.376 116.484C197.573 117.382 197.566 118.475 197.357 119.761L197.2 120.74H185.917L186.241 118.672H194.809C194.938 117.946 194.904 117.302 194.707 116.742C194.51 116.176 194.172 115.73 193.692 115.403C193.218 115.077 192.621 114.914 191.9 114.914C191.162 114.914 190.472 115.108 189.832 115.496C189.192 115.884 188.657 116.379 188.226 116.982C187.801 117.579 187.533 118.195 187.422 118.829L187.099 120.722C186.939 121.756 186.967 122.587 187.182 123.214C187.404 123.842 187.792 124.298 188.346 124.581C188.9 124.864 189.592 125.006 190.423 125.006C190.959 125.006 191.454 124.932 191.91 124.784C192.371 124.63 192.781 124.406 193.138 124.11C193.495 123.808 193.793 123.433 194.033 122.984L196.563 123.455C196.224 124.224 195.738 124.898 195.104 125.477C194.47 126.049 193.722 126.495 192.861 126.815C192.005 127.129 191.057 127.286 190.017 127.286ZM199.252 127L201.616 112.818H204.284L203.906 115.071H204.053C204.435 114.308 204.992 113.708 205.724 113.271C206.457 112.827 207.239 112.606 208.07 112.606C208.248 112.606 208.451 112.612 208.679 112.624C208.907 112.63 209.091 112.646 209.233 112.67L208.79 115.311C208.685 115.28 208.494 115.246 208.217 115.21C207.94 115.166 207.654 115.145 207.359 115.145C206.712 115.145 206.112 115.283 205.558 115.56C205.004 115.831 204.54 116.21 204.164 116.696C203.789 117.176 203.545 117.724 203.435 118.339L202.013 127H199.252ZM213.245 127.314C212.346 127.314 211.561 127.148 210.89 126.815C210.219 126.477 209.724 125.987 209.404 125.347C209.084 124.707 209.001 123.922 209.154 122.993C209.29 122.193 209.555 121.534 209.949 121.017C210.349 120.5 210.835 120.091 211.407 119.789C211.98 119.481 212.601 119.25 213.272 119.097C213.943 118.943 214.62 118.829 215.304 118.755C216.165 118.656 216.864 118.573 217.4 118.506C217.941 118.438 218.347 118.333 218.618 118.192C218.889 118.044 219.052 117.804 219.108 117.472V117.407C219.237 116.607 219.12 115.985 218.757 115.542C218.4 115.093 217.778 114.868 216.892 114.868C215.968 114.868 215.193 115.071 214.565 115.477C213.943 115.884 213.485 116.339 213.189 116.844L210.715 116.253C211.158 115.391 211.721 114.696 212.404 114.166C213.094 113.631 213.848 113.243 214.667 113.003C215.485 112.757 216.322 112.634 217.178 112.634C217.744 112.634 218.332 112.701 218.941 112.837C219.551 112.966 220.105 113.206 220.603 113.557C221.108 113.908 221.484 114.409 221.73 115.062C221.976 115.708 222.013 116.548 221.841 117.582L220.28 127H217.584L217.917 125.061H217.806C217.572 125.418 217.246 125.769 216.827 126.114C216.415 126.458 215.91 126.745 215.313 126.972C214.716 127.2 214.026 127.314 213.245 127.314ZM214.186 125.098C214.956 125.098 215.636 124.947 216.227 124.646C216.824 124.344 217.307 123.95 217.676 123.464C218.046 122.971 218.277 122.445 218.369 121.885L218.674 120.057C218.557 120.155 218.35 120.245 218.055 120.325C217.766 120.405 217.44 120.475 217.076 120.537C216.713 120.598 216.356 120.651 216.005 120.694C215.661 120.737 215.374 120.777 215.147 120.814C214.605 120.882 214.097 120.996 213.623 121.156C213.155 121.316 212.765 121.546 212.451 121.848C212.137 122.143 211.94 122.537 211.86 123.03C211.749 123.713 211.912 124.23 212.349 124.581C212.792 124.926 213.405 125.098 214.186 125.098ZM223.08 132.318L226.349 112.818H229.045L228.666 115.117H228.897C229.106 114.822 229.389 114.48 229.746 114.092C230.109 113.705 230.586 113.366 231.177 113.077C231.768 112.781 232.504 112.634 233.384 112.634C234.529 112.634 235.498 112.923 236.292 113.501C237.086 114.08 237.653 114.914 237.991 116.004C238.33 117.093 238.373 118.404 238.121 119.937C237.868 121.469 237.394 122.784 236.699 123.879C236.003 124.969 235.16 125.809 234.169 126.4C233.184 126.985 232.116 127.277 230.965 127.277C230.103 127.277 229.423 127.132 228.925 126.843C228.432 126.554 228.066 126.215 227.826 125.827C227.586 125.44 227.404 125.095 227.281 124.793H227.115L225.859 132.318H223.08ZM227.872 119.909C227.712 120.906 227.712 121.78 227.872 122.531C228.032 123.282 228.352 123.87 228.832 124.295C229.318 124.713 229.959 124.923 230.753 124.923C231.577 124.923 232.301 124.704 232.922 124.267C233.544 123.824 234.058 123.224 234.464 122.467C234.877 121.71 235.163 120.857 235.323 119.909C235.477 118.973 235.474 118.133 235.314 117.388C235.16 116.644 234.843 116.056 234.363 115.625C233.883 115.194 233.227 114.979 232.396 114.979C231.59 114.979 230.876 115.185 230.254 115.597C229.639 116.01 229.128 116.585 228.721 117.324C228.315 118.062 228.032 118.924 227.872 119.909ZM239.152 132.318L242.421 112.818H245.117L244.738 115.117H244.969C245.178 114.822 245.462 114.48 245.819 114.092C246.182 113.705 246.659 113.366 247.25 113.077C247.841 112.781 248.576 112.634 249.456 112.634C250.601 112.634 251.571 112.923 252.365 113.501C253.159 114.08 253.725 114.914 254.064 116.004C254.402 117.093 254.445 118.404 254.193 119.937C253.94 121.469 253.467 122.784 252.771 123.879C252.075 124.969 251.232 125.809 250.241 126.4C249.256 126.985 248.188 127.277 247.037 127.277C246.176 127.277 245.495 127.132 244.997 126.843C244.504 126.554 244.138 126.215 243.898 125.827C243.658 125.44 243.476 125.095 243.353 124.793H243.187L241.931 132.318H239.152ZM243.944 119.909C243.784 120.906 243.784 121.78 243.944 122.531C244.104 123.282 244.424 123.87 244.904 124.295C245.391 124.713 246.031 124.923 246.825 124.923C247.65 124.923 248.373 124.704 248.995 124.267C249.616 123.824 250.13 123.224 250.537 122.467C250.949 121.71 251.235 120.857 251.395 119.909C251.549 118.973 251.546 118.133 251.386 117.388C251.232 116.644 250.915 116.056 250.435 115.625C249.955 115.194 249.299 114.979 248.468 114.979C247.662 114.979 246.948 115.185 246.326 115.597C245.711 116.01 245.2 116.585 244.794 117.324C244.387 118.062 244.104 118.924 243.944 119.909Z" fill="#2D2A2E"/>
</svg>
