<svg width="10" height="10" viewBox="0 0 10 10" fill="none" xmlns="http://www.w3.org/2000/svg">
<path d="M5.00065 0.833496C2.70898 0.833496 0.833984 2.7085 0.833984 5.00016C0.833984 7.29183 2.70898 9.16683 5.00065 9.16683C7.29232 9.16683 9.16732 7.29183 9.16732 5.00016C9.16732 2.7085 7.29232 0.833496 5.00065 0.833496ZM5.00065 7.0835C4.75065 7.0835 4.58398 6.91683 4.58398 6.66683C4.58398 6.41683 4.75065 6.25016 5.00065 6.25016C5.25065 6.25016 5.41732 6.41683 5.41732 6.66683C5.41732 6.91683 5.25065 7.0835 5.00065 7.0835ZM5.41732 5.00016C5.41732 5.25016 5.25065 5.41683 5.00065 5.41683C4.75065 5.41683 4.58398 5.25016 4.58398 5.00016V3.3335C4.58398 3.0835 4.75065 2.91683 5.00065 2.91683C5.25065 2.91683 5.41732 3.0835 5.41732 3.3335V5.00016Z" fill="#EA7407"/>
</svg>
