<svg width="128" height="128" viewBox="0 0 128 128" fill="none" xmlns="http://www.w3.org/2000/svg">
<path d="M29.5801 68.8307L95.2301 68.3407C111.53 68.2207 124.84 81.3407 124.96 97.6407C125.08 113.941 111.96 127.251 95.6601 127.371L30.0101 127.861C13.7101 127.981 0.400114 114.861 0.280114 98.5607C0.160114 82.2607 13.2801 68.9507 29.5801 68.8307Z" fill="#F5BF00"/>
<path d="M29.8003 127.86C46.1037 127.86 59.3203 114.644 59.3203 98.3403C59.3203 82.0369 46.1037 68.8203 29.8003 68.8203C13.4968 68.8203 0.280273 82.0369 0.280273 98.3403C0.280273 114.644 13.4968 127.86 29.8003 127.86Z" fill="#2D2A2E"/>
<path d="M98.4199 59.1705L32.7699 59.6605C16.4699 59.7805 3.15988 46.6605 3.03988 30.3605C2.91988 14.0605 16.0399 0.750463 32.3399 0.630463L97.9899 0.140465C114.29 0.0204651 127.6 13.1405 127.72 29.4405C127.84 45.7405 114.72 59.0505 98.4199 59.1705Z" fill="#F5BF00"/>
<path d="M98.1997 59.1806C114.503 59.1806 127.72 45.9641 127.72 29.6606C127.72 13.3572 114.503 0.140625 98.1997 0.140625C81.8962 0.140625 68.6797 13.3572 68.6797 29.6606C68.6797 45.9641 81.8962 59.1806 98.1997 59.1806Z" fill="#2D2A2E"/>
</svg>
