<svg width="630" height="631" viewBox="0 0 630 631" fill="none" xmlns="http://www.w3.org/2000/svg">
<g filter="url(#filter0_d_605_76)">
<path d="M349.253 74.8414C346.918 72.5206 344.044 70.8085 340.886 69.8569C337.727 68.9052 334.382 68.7434 331.145 69.3856C327.909 70.0279 324.881 71.4544 322.331 73.5389C319.781 75.6234 317.787 78.3015 316.525 81.3361C315.263 84.3707 314.773 87.668 315.097 90.9362C315.422 94.2044 316.551 97.3424 318.385 100.073C320.22 102.803 322.702 105.041 325.613 106.588C328.524 108.136 331.773 108.945 335.073 108.944C339.044 108.944 342.924 107.771 346.225 105.575C349.525 103.38 352.097 100.259 353.615 96.6082C355.133 92.9576 355.529 88.9409 354.753 85.0663C353.976 81.1918 352.062 77.6334 349.253 74.8414ZM340.013 93.898C338.69 95.1416 336.932 95.8234 335.112 95.7989C333.292 95.7744 331.554 95.0455 330.265 93.7668C328.976 92.488 328.238 90.76 328.208 88.9491C328.178 87.1381 328.858 85.3867 330.103 84.0662C331.426 82.8226 333.184 82.1408 335.004 82.1653C336.824 82.1898 338.563 82.9187 339.852 84.1975C341.141 85.4762 341.878 87.2043 341.909 89.0152C341.939 90.8261 341.259 92.5775 340.013 93.898Z" fill="#282F39"/>
<path d="M339.947 93.9482C338.624 95.1918 336.866 95.8736 335.046 95.849C333.226 95.8245 331.488 95.0957 330.199 93.8169C328.91 92.5382 328.172 90.8101 328.142 88.9992C328.112 87.1883 328.791 85.4369 330.037 84.1164C331.36 82.8728 333.118 82.191 334.938 82.2155C336.758 82.24 338.497 82.9689 339.786 84.2476C341.075 85.5264 341.812 87.2544 341.843 89.0653C341.873 90.8763 341.193 92.6277 339.947 93.9482Z" fill="#B1E0F4"/>
<path d="M479.407 139.653C476.126 136.411 471.818 134.402 467.215 133.965C462.613 133.528 458.001 134.692 454.163 137.258C450.326 139.823 447.5 143.633 446.167 148.038C444.834 152.444 445.075 157.172 446.851 161.42C448.626 165.668 451.826 169.173 455.905 171.338C459.984 173.503 464.692 174.195 469.226 173.296C473.76 172.397 477.841 169.963 480.775 166.407C483.708 162.851 485.314 158.394 485.317 153.793C485.324 151.164 484.805 148.56 483.79 146.132C482.776 143.704 481.286 141.502 479.407 139.653ZM470.167 158.709C468.834 159.97 467.066 160.673 465.227 160.673C463.388 160.673 461.62 159.97 460.287 158.709C459.305 157.736 458.636 156.495 458.364 155.143C458.092 153.791 458.228 152.389 458.757 151.115C459.286 149.84 460.184 148.751 461.336 147.984C462.487 147.217 463.842 146.808 465.227 146.808C466.613 146.808 467.968 147.217 469.119 147.984C470.271 148.751 471.168 149.84 471.697 151.115C472.226 152.389 472.363 153.791 472.091 155.143C471.819 156.495 471.149 157.736 470.167 158.709Z" fill="#282F39"/>
<path d="M472.187 153.806C472.192 154.72 472.012 155.627 471.658 156.471C471.304 157.316 470.784 158.081 470.128 158.721C468.795 159.982 467.026 160.685 465.187 160.685C463.348 160.685 461.58 159.982 460.247 158.721C459.431 157.912 458.828 156.915 458.492 155.817C458.156 154.72 458.097 153.558 458.321 152.433C458.545 151.307 459.044 150.255 459.775 149.368C460.506 148.481 461.446 147.788 462.511 147.349C463.576 146.911 464.734 146.741 465.88 146.855C467.027 146.968 468.128 147.362 469.086 148C470.043 148.639 470.827 149.503 471.368 150.516C471.909 151.529 472.19 152.659 472.187 153.806Z" fill="#B1E0F4"/>
<path d="M544.955 296.945C543.618 298.216 541.845 298.924 540 298.924C538.156 298.924 536.382 298.216 535.045 296.945C534.068 295.965 533.402 294.718 533.133 293.36C532.865 292.003 533.004 290.596 533.534 289.318C534.065 288.04 534.962 286.947 536.112 286.179C537.263 285.41 538.616 285 540 285C541.384 285 542.736 285.41 543.887 286.179C545.038 286.947 545.935 288.04 546.465 289.318C546.996 290.596 547.135 292.003 546.866 293.36C546.597 294.718 545.932 295.965 544.955 296.945Z" fill="#B1E0F4"/>
<path d="M588.24 284C586.438 283.525 584.78 282.614 583.413 281.348C582.046 280.081 581.012 278.498 580.401 276.737C579.79 274.976 579.622 273.092 579.912 271.251C580.201 269.41 580.938 267.669 582.06 266.18C593.18 251.34 595.15 234.4 586.7 225.94C578.25 217.48 561.46 219.46 546.7 230.46C545.21 231.574 543.472 232.307 541.634 232.595C539.797 232.884 537.917 232.72 536.158 232.116C534.398 231.513 532.813 230.49 531.54 229.134C530.266 227.779 529.342 226.133 528.85 224.34C528 221.111 526.814 217.981 525.31 215C523.73 215.19 522.09 215.31 520.46 215.4C519.88 227.88 516.18 239.58 509.94 248.64C502.58 259.34 492.55 265.21 481.7 265.21C470.46 265.21 459.79 258.64 452.49 247.21C449.615 242.672 447.38 237.759 445.85 232.61C441.667 235.502 437.177 237.92 432.46 239.82C433.905 248.245 433.406 256.888 431 265.09C440.844 262.317 451.249 262.216 461.145 264.8C471.04 267.384 480.069 272.558 487.3 279.789C494.532 287.021 499.706 296.05 502.29 305.945C504.873 315.841 504.773 326.246 502 336.09C511.842 333.238 522.271 333.095 532.188 335.677C542.104 338.259 551.139 343.47 558.34 350.76C559.828 352.229 561.224 353.789 562.52 355.43C563.388 351.344 563.824 347.177 563.82 343C563.868 341.775 564.157 340.572 564.672 339.46C565.187 338.348 565.917 337.349 566.82 336.52C567.637 335.63 568.629 334.918 569.733 334.428C570.838 333.937 572.031 333.679 573.24 333.67C595 333.67 613.52 321.85 613.52 307.85C613.55 297.58 603.37 288 588.24 284ZM554.61 306.49C552.751 308.363 550.539 309.85 548.103 310.864C545.667 311.879 543.054 312.401 540.415 312.401C537.776 312.401 535.163 311.879 532.727 310.864C530.29 309.85 528.079 308.363 526.22 306.49C523.41 303.682 521.497 300.104 520.721 296.209C519.946 292.313 520.343 288.275 521.862 284.606C523.382 280.936 525.955 277.799 529.258 275.592C532.56 273.386 536.443 272.208 540.415 272.208C544.387 272.208 548.269 273.386 551.572 275.592C554.874 277.799 557.448 280.936 558.967 284.606C560.487 288.275 560.884 292.313 560.108 296.209C559.333 300.104 557.419 303.682 554.61 306.49Z" fill="#B1E0F4"/>
<path d="M554.61 278.09C551.8 275.272 548.216 273.351 544.314 272.57C540.411 271.79 536.365 272.185 532.687 273.705C529.009 275.226 525.865 277.803 523.653 281.111C521.441 284.42 520.26 288.31 520.26 292.29C520.26 296.269 521.441 300.16 523.653 303.468C525.865 306.776 529.009 309.354 532.687 310.874C536.365 312.395 540.411 312.79 544.314 312.009C548.216 311.229 551.8 309.308 554.61 306.49C556.484 304.63 557.972 302.418 558.988 299.981C560.003 297.544 560.526 294.93 560.526 292.29C560.526 289.649 560.003 287.035 558.988 284.598C557.972 282.161 556.484 279.949 554.61 278.09ZM545.37 297.24C544.033 298.511 542.26 299.22 540.415 299.22C538.571 299.22 536.797 298.511 535.46 297.24C534.482 296.26 533.817 295.013 533.548 293.655C533.279 292.298 533.419 290.891 533.949 289.613C534.479 288.335 535.377 287.242 536.527 286.474C537.678 285.705 539.031 285.295 540.415 285.295C541.799 285.295 543.151 285.705 544.302 286.474C545.453 287.242 546.35 288.335 546.88 289.613C547.411 290.891 547.55 292.298 547.281 293.655C547.012 295.013 546.347 296.26 545.37 297.24Z" fill="#282F39"/>
<path d="M553.313 279.05C550.503 276.232 546.92 274.311 543.017 273.531C539.115 272.75 535.068 273.145 531.39 274.665C527.712 276.186 524.568 278.763 522.356 282.072C520.144 285.38 518.963 289.27 518.963 293.25C518.963 297.23 520.144 301.12 522.356 304.428C524.568 307.737 527.712 310.314 531.39 311.835C535.068 313.355 539.115 313.75 543.017 312.969C546.92 312.189 550.503 310.268 553.313 307.45C555.188 305.591 556.676 303.379 557.691 300.942C558.706 298.504 559.229 295.89 559.229 293.25C559.229 290.61 558.706 287.996 557.691 285.558C556.676 283.121 555.188 280.909 553.313 279.05ZM544.073 298.2C542.736 299.471 540.963 300.18 539.118 300.18C537.274 300.18 535.5 299.471 534.163 298.2C533.186 297.22 532.52 295.973 532.251 294.616C531.983 293.258 532.122 291.852 532.652 290.573C533.183 289.295 534.08 288.203 535.23 287.434C536.381 286.666 537.734 286.255 539.118 286.255C540.502 286.255 541.855 286.666 543.005 287.434C544.156 288.203 545.053 289.295 545.583 290.573C546.114 291.852 546.253 293.258 545.984 294.616C545.715 295.973 545.05 297.22 544.073 298.2ZM352.283 78.03C349.948 75.6978 347.074 73.9774 343.915 73.0211C340.757 72.0648 337.411 71.9021 334.175 72.5475C330.938 73.1929 327.911 74.6264 325.361 76.7211C322.811 78.8158 320.816 81.5071 319.554 84.5565C318.293 87.606 317.802 90.9195 318.127 94.2037C318.451 97.4878 319.581 100.641 321.415 103.385C323.249 106.128 325.732 108.377 328.643 109.932C331.553 111.487 334.803 112.301 338.103 112.3C342.073 112.299 345.954 111.121 349.254 108.915C352.555 106.708 355.127 103.572 356.645 99.9035C358.163 96.2349 358.559 92.1986 357.782 88.305C357.006 84.4115 355.092 80.8357 352.283 78.03ZM343.043 97.18C341.72 98.4297 339.962 99.1148 338.142 99.0902C336.322 99.0655 334.583 98.3331 333.294 97.0481C332.006 95.7631 331.268 94.0266 331.238 92.2068C331.207 90.387 331.887 88.627 333.133 87.3C334.456 86.0503 336.214 85.3652 338.034 85.3898C339.854 85.4144 341.592 86.1469 342.881 87.4319C344.17 88.7169 344.908 90.4534 344.938 92.2732C344.968 94.093 344.289 95.853 343.043 97.18ZM482.503 143.11C479.222 139.853 474.913 137.833 470.311 137.394C465.709 136.956 461.096 138.125 457.259 140.703C453.421 143.282 450.596 147.11 449.263 151.537C447.929 155.964 448.171 160.716 449.946 164.984C451.722 169.253 454.921 172.775 459 174.951C463.08 177.127 467.787 177.822 472.321 176.919C476.855 176.015 480.936 173.569 483.87 169.996C486.804 166.422 488.409 161.943 488.413 157.32C488.42 154.678 487.9 152.061 486.886 149.621C485.871 147.182 484.381 144.968 482.503 143.11ZM473.263 162.26C471.93 163.527 470.162 164.233 468.323 164.233C466.484 164.233 464.716 163.527 463.383 162.26C462.401 161.282 461.732 160.035 461.459 158.676C461.187 157.318 461.324 155.909 461.853 154.628C462.382 153.347 463.279 152.253 464.431 151.482C465.583 150.712 466.937 150.301 468.323 150.301C469.708 150.301 471.063 150.712 472.215 151.482C473.367 152.253 474.263 153.347 474.792 154.628C475.321 155.909 475.459 157.318 475.187 158.676C474.914 160.035 474.244 161.282 473.263 162.26ZM482.503 143.11C479.222 139.853 474.913 137.833 470.311 137.394C465.709 136.956 461.096 138.125 457.259 140.703C453.421 143.282 450.596 147.11 449.263 151.537C447.929 155.964 448.171 160.716 449.946 164.984C451.722 169.253 454.921 172.775 459 174.951C463.08 177.127 467.787 177.822 472.321 176.919C476.855 176.015 480.936 173.569 483.87 169.996C486.804 166.422 488.409 161.943 488.413 157.32C488.42 154.678 487.9 152.061 486.886 149.621C485.871 147.182 484.381 144.968 482.503 143.11ZM473.263 162.26C471.93 163.527 470.162 164.233 468.323 164.233C466.484 164.233 464.716 163.527 463.383 162.26C462.401 161.282 461.732 160.035 461.459 158.676C461.187 157.318 461.324 155.909 461.853 154.628C462.382 153.347 463.279 152.253 464.431 151.482C465.583 150.712 466.937 150.301 468.323 150.301C469.708 150.301 471.063 150.712 472.215 151.482C473.367 152.253 474.263 153.347 474.792 154.628C475.321 155.909 475.459 157.318 475.187 158.676C474.914 160.035 474.244 161.282 473.263 162.26ZM482.503 143.11C479.222 139.853 474.913 137.833 470.311 137.394C465.709 136.956 461.096 138.125 457.259 140.703C453.421 143.282 450.596 147.11 449.263 151.537C447.929 155.964 448.171 160.716 449.946 164.984C451.722 169.253 454.921 172.775 459 174.951C463.08 177.127 467.787 177.822 472.321 176.919C476.855 176.015 480.936 173.569 483.87 169.996C486.804 166.422 488.409 161.943 488.413 157.32C488.42 154.678 487.9 152.061 486.886 149.621C485.871 147.182 484.381 144.968 482.503 143.11ZM473.263 162.26C471.93 163.527 470.162 164.233 468.323 164.233C466.484 164.233 464.716 163.527 463.383 162.26C462.401 161.282 461.732 160.035 461.459 158.676C461.187 157.318 461.324 155.909 461.853 154.628C462.382 153.347 463.279 152.253 464.431 151.482C465.583 150.712 466.937 150.301 468.323 150.301C469.708 150.301 471.063 150.712 472.215 151.482C473.367 152.253 474.263 153.347 474.792 154.628C475.321 155.909 475.459 157.318 475.187 158.676C474.914 160.035 474.244 161.282 473.263 162.26ZM352.323 78.02C349.988 75.6878 347.114 73.9674 343.955 73.0111C340.797 72.0548 337.451 71.8921 334.215 72.5375C330.978 73.1829 327.951 74.6165 325.401 76.7112C322.85 78.8059 320.856 81.4971 319.594 84.5465C318.333 87.596 317.842 90.9095 318.167 94.1936C318.492 97.4778 319.621 100.631 321.455 103.375C323.289 106.118 325.772 108.367 328.683 109.922C331.593 111.477 334.843 112.291 338.143 112.29C342.113 112.289 345.994 111.111 349.294 108.905C352.595 106.698 355.167 103.562 356.685 99.8935C358.203 96.2249 358.598 92.1886 357.822 88.295C357.046 84.4015 355.132 80.8257 352.323 78.02ZM343.083 97.17C341.76 98.4197 340.002 99.1048 338.182 99.0802C336.362 99.0556 334.623 98.3231 333.334 97.0381C332.046 95.7531 331.308 94.0166 331.278 92.1968C331.247 90.377 331.927 88.617 333.173 87.29C334.496 86.0403 336.254 85.3552 338.074 85.3798C339.894 85.4045 341.632 86.1369 342.921 87.4219C344.21 88.7069 344.948 90.4434 344.978 92.2632C345.008 94.083 344.329 95.843 343.083 97.17ZM482.503 143.11C479.222 139.853 474.913 137.833 470.311 137.394C465.709 136.956 461.096 138.125 457.259 140.703C453.421 143.282 450.596 147.11 449.263 151.537C447.929 155.964 448.171 160.716 449.946 164.984C451.722 169.253 454.921 172.775 459 174.951C463.08 177.127 467.787 177.822 472.321 176.919C476.855 176.015 480.936 173.569 483.87 169.996C486.804 166.422 488.409 161.943 488.413 157.32C488.42 154.678 487.9 152.061 486.886 149.621C485.871 147.182 484.381 144.968 482.503 143.11ZM473.263 162.26C471.93 163.527 470.162 164.233 468.323 164.233C466.484 164.233 464.716 163.527 463.383 162.26C462.401 161.282 461.732 160.035 461.459 158.676C461.187 157.318 461.324 155.909 461.853 154.628C462.382 153.347 463.279 152.253 464.431 151.482C465.583 150.712 466.937 150.301 468.323 150.301C469.708 150.301 471.063 150.712 472.215 151.482C473.367 152.253 474.263 153.347 474.792 154.628C475.321 155.909 475.459 157.318 475.187 158.676C474.914 160.035 474.244 161.282 473.263 162.26ZM553.353 279.04C550.543 276.222 546.96 274.301 543.057 273.521C539.155 272.74 535.108 273.135 531.43 274.655C527.752 276.176 524.608 278.753 522.396 282.062C520.184 285.37 519.003 289.26 519.003 293.24C519.003 297.22 520.184 301.11 522.396 304.418C524.608 307.727 527.752 310.304 531.43 311.825C535.108 313.345 539.155 313.74 543.057 312.959C546.96 312.179 550.543 310.258 553.353 307.44C555.223 305.578 556.707 303.365 557.718 300.927C558.729 298.489 559.247 295.876 559.244 293.237C559.24 290.598 558.714 287.985 557.696 285.551C556.678 283.116 555.189 280.906 553.313 279.05L553.353 279.04ZM544.113 298.19C542.776 299.461 541.002 300.17 539.158 300.17C537.313 300.17 535.54 299.461 534.203 298.19C533.226 297.21 532.56 295.963 532.292 294.606C532.023 293.248 532.162 291.842 532.692 290.563C533.223 289.285 534.12 288.193 535.271 287.424C536.421 286.656 537.774 286.245 539.158 286.245C540.542 286.245 541.895 286.656 543.045 287.424C544.196 288.193 545.093 289.285 545.624 290.563C546.154 291.842 546.293 293.248 546.024 294.606C545.756 295.963 545.09 297.21 544.113 298.19ZM553.353 279.04C550.543 276.222 546.96 274.301 543.057 273.521C539.155 272.74 535.108 273.135 531.43 274.655C527.752 276.176 524.608 278.753 522.396 282.062C520.184 285.37 519.003 289.26 519.003 293.24C519.003 297.22 520.184 301.11 522.396 304.418C524.608 307.727 527.752 310.304 531.43 311.825C535.108 313.345 539.155 313.74 543.057 312.959C546.96 312.179 550.543 310.258 553.353 307.44C555.223 305.578 556.707 303.365 557.718 300.927C558.729 298.489 559.247 295.876 559.244 293.237C559.24 290.598 558.714 287.985 557.696 285.551C556.678 283.116 555.189 280.906 553.313 279.05L553.353 279.04ZM544.113 298.19C542.776 299.461 541.002 300.17 539.158 300.17C537.313 300.17 535.54 299.461 534.203 298.19C533.226 297.21 532.56 295.963 532.292 294.606C532.023 293.248 532.162 291.842 532.692 290.563C533.223 289.285 534.12 288.193 535.271 287.424C536.421 286.656 537.774 286.245 539.158 286.245C540.542 286.245 541.895 286.656 543.045 287.424C544.196 288.193 545.093 289.285 545.624 290.563C546.154 291.842 546.293 293.248 546.024 294.606C545.756 295.963 545.09 297.21 544.113 298.19ZM352.283 78.03C349.948 75.6978 347.074 73.9774 343.915 73.0211C340.757 72.0648 337.411 71.9021 334.175 72.5475C330.938 73.1929 327.911 74.6264 325.361 76.7211C322.811 78.8158 320.816 81.5071 319.554 84.5565C318.293 87.606 317.802 90.9195 318.127 94.2037C318.451 97.4878 319.581 100.641 321.415 103.385C323.249 106.128 325.732 108.377 328.643 109.932C331.553 111.487 334.803 112.301 338.103 112.3C342.073 112.299 345.954 111.121 349.254 108.915C352.555 106.708 355.127 103.572 356.645 99.9035C358.163 96.2349 358.559 92.1986 357.782 88.305C357.006 84.4115 355.092 80.8357 352.283 78.03ZM343.043 97.18C341.72 98.4297 339.962 99.1148 338.142 99.0902C336.322 99.0655 334.583 98.3331 333.294 97.0481C332.006 95.7631 331.268 94.0266 331.238 92.2068C331.207 90.387 331.887 88.627 333.133 87.3C334.456 86.0503 336.214 85.3652 338.034 85.3898C339.854 85.4144 341.592 86.1469 342.881 87.4319C344.17 88.7169 344.908 90.4534 344.938 92.2732C344.968 94.093 344.289 95.853 343.043 97.18ZM482.503 143.11C479.222 139.853 474.913 137.833 470.311 137.394C465.709 136.956 461.096 138.125 457.259 140.703C453.421 143.282 450.596 147.11 449.263 151.537C447.929 155.964 448.171 160.716 449.946 164.984C451.722 169.253 454.921 172.775 459 174.951C463.08 177.127 467.787 177.822 472.321 176.919C476.855 176.015 480.936 173.569 483.87 169.996C486.804 166.422 488.409 161.943 488.413 157.32C488.42 154.678 487.9 152.061 486.886 149.621C485.871 147.182 484.381 144.968 482.503 143.11ZM473.263 162.26C471.93 163.527 470.162 164.233 468.323 164.233C466.484 164.233 464.716 163.527 463.383 162.26C462.401 161.282 461.732 160.035 461.459 158.676C461.187 157.318 461.324 155.909 461.853 154.628C462.382 153.347 463.279 152.253 464.431 151.482C465.583 150.712 466.937 150.301 468.323 150.301C469.708 150.301 471.063 150.712 472.215 151.482C473.367 152.253 474.263 153.347 474.792 154.628C475.321 155.909 475.459 157.318 475.187 158.676C474.914 160.035 474.244 161.282 473.263 162.26ZM352.323 78.02C349.988 75.6878 347.114 73.9674 343.955 73.0111C340.797 72.0548 337.451 71.8921 334.215 72.5375C330.978 73.1829 327.951 74.6165 325.401 76.7112C322.85 78.8059 320.856 81.4971 319.594 84.5465C318.333 87.596 317.842 90.9095 318.167 94.1936C318.492 97.4778 319.621 100.631 321.455 103.375C323.289 106.118 325.772 108.367 328.683 109.922C331.593 111.477 334.843 112.291 338.143 112.29C342.113 112.289 345.994 111.111 349.294 108.905C352.595 106.698 355.167 103.562 356.685 99.8935C358.203 96.2249 358.598 92.1886 357.822 88.295C357.046 84.4015 355.132 80.8257 352.323 78.02ZM343.083 97.17C341.76 98.4197 340.002 99.1048 338.182 99.0802C336.362 99.0556 334.623 98.3231 333.334 97.0381C332.046 95.7531 331.308 94.0166 331.278 92.1968C331.247 90.377 331.927 88.617 333.173 87.29C334.496 86.0403 336.254 85.3552 338.074 85.3798C339.894 85.4045 341.632 86.1369 342.921 87.4219C344.21 88.7069 344.948 90.4434 344.978 92.2632C345.008 94.083 344.329 95.843 343.083 97.17ZM482.503 143.11C479.222 139.853 474.913 137.833 470.311 137.394C465.709 136.956 461.096 138.125 457.259 140.703C453.421 143.282 450.596 147.11 449.263 151.537C447.929 155.964 448.171 160.716 449.946 164.984C451.722 169.253 454.921 172.775 459 174.951C463.08 177.127 467.787 177.822 472.321 176.919C476.855 176.015 480.936 173.569 483.87 169.996C486.804 166.422 488.409 161.943 488.413 157.32C488.42 154.678 487.9 152.061 486.886 149.621C485.871 147.182 484.381 144.968 482.503 143.11ZM473.263 162.26C471.93 163.527 470.162 164.233 468.323 164.233C466.484 164.233 464.716 163.527 463.383 162.26C462.401 161.282 461.732 160.035 461.459 158.676C461.187 157.318 461.324 155.909 461.853 154.628C462.382 153.347 463.279 152.253 464.431 151.482C465.583 150.712 466.937 150.301 468.323 150.301C469.708 150.301 471.063 150.712 472.215 151.482C473.367 152.253 474.263 153.347 474.792 154.628C475.321 155.909 475.459 157.318 475.187 158.676C474.914 160.035 474.244 161.282 473.263 162.26ZM553.353 279.04C550.543 276.222 546.96 274.301 543.057 273.521C539.155 272.74 535.108 273.135 531.43 274.655C527.752 276.176 524.608 278.753 522.396 282.062C520.184 285.37 519.003 289.26 519.003 293.24C519.003 297.22 520.184 301.11 522.396 304.418C524.608 307.727 527.752 310.304 531.43 311.825C535.108 313.345 539.155 313.74 543.057 312.959C546.96 312.179 550.543 310.258 553.353 307.44C555.223 305.578 556.707 303.365 557.718 300.927C558.729 298.489 559.247 295.876 559.244 293.237C559.24 290.598 558.714 287.985 557.696 285.551C556.678 283.116 555.189 280.906 553.313 279.05L553.353 279.04ZM544.113 298.19C542.776 299.461 541.002 300.17 539.158 300.17C537.313 300.17 535.54 299.461 534.203 298.19C533.226 297.21 532.56 295.963 532.292 294.606C532.023 293.248 532.162 291.842 532.692 290.563C533.223 289.285 534.12 288.193 535.271 287.424C536.421 286.656 537.774 286.245 539.158 286.245C540.542 286.245 541.895 286.656 543.045 287.424C544.196 288.193 545.093 289.285 545.624 290.563C546.154 291.842 546.293 293.248 546.024 294.606C545.756 295.963 545.09 297.21 544.113 298.19ZM553.353 279.04C550.543 276.222 546.96 274.301 543.057 273.521C539.155 272.74 535.108 273.135 531.43 274.655C527.752 276.176 524.608 278.753 522.396 282.062C520.184 285.37 519.003 289.26 519.003 293.24C519.003 297.22 520.184 301.11 522.396 304.418C524.608 307.727 527.752 310.304 531.43 311.825C535.108 313.345 539.155 313.74 543.057 312.959C546.96 312.179 550.543 310.258 553.353 307.44C555.223 305.578 556.707 303.365 557.718 300.927C558.729 298.489 559.247 295.876 559.244 293.237C559.24 290.598 558.714 287.985 557.696 285.551C556.678 283.116 555.189 280.906 553.313 279.05L553.353 279.04ZM544.113 298.19C542.776 299.461 541.002 300.17 539.158 300.17C537.313 300.17 535.54 299.461 534.203 298.19C533.226 297.21 532.56 295.963 532.292 294.606C532.023 293.248 532.162 291.842 532.692 290.563C533.223 289.285 534.12 288.193 535.271 287.424C536.421 286.656 537.774 286.245 539.158 286.245C540.542 286.245 541.895 286.656 543.045 287.424C544.196 288.193 545.093 289.285 545.624 290.563C546.154 291.842 546.293 293.248 546.024 294.606C545.756 295.963 545.09 297.21 544.113 298.19ZM352.283 78.03C349.948 75.6978 347.074 73.9774 343.915 73.0211C340.757 72.0648 337.411 71.9021 334.175 72.5475C330.938 73.1929 327.911 74.6264 325.361 76.7211C322.811 78.8158 320.816 81.5071 319.554 84.5565C318.293 87.606 317.802 90.9195 318.127 94.2037C318.451 97.4878 319.581 100.641 321.415 103.385C323.249 106.128 325.732 108.377 328.643 109.932C331.553 111.487 334.803 112.301 338.103 112.3C342.073 112.299 345.954 111.121 349.254 108.915C352.555 106.708 355.127 103.572 356.645 99.9035C358.163 96.2349 358.559 92.1986 357.782 88.305C357.006 84.4115 355.092 80.8357 352.283 78.03ZM343.043 97.18C341.72 98.4297 339.962 99.1148 338.142 99.0902C336.322 99.0655 334.583 98.3331 333.294 97.0481C332.006 95.7631 331.268 94.0266 331.238 92.2068C331.207 90.387 331.887 88.627 333.133 87.3C334.456 86.0503 336.214 85.3652 338.034 85.3898C339.854 85.4144 341.592 86.1469 342.881 87.4319C344.17 88.7169 344.908 90.4534 344.938 92.2732C344.968 94.093 344.289 95.853 343.043 97.18ZM482.503 143.11C479.222 139.853 474.913 137.833 470.311 137.394C465.709 136.956 461.096 138.125 457.259 140.703C453.421 143.282 450.596 147.11 449.263 151.537C447.929 155.964 448.171 160.716 449.946 164.984C451.722 169.253 454.921 172.775 459 174.951C463.08 177.127 467.787 177.822 472.321 176.919C476.855 176.015 480.936 173.569 483.87 169.996C486.804 166.422 488.409 161.943 488.413 157.32C488.42 154.678 487.9 152.061 486.886 149.621C485.871 147.182 484.381 144.968 482.503 143.11ZM473.263 162.26C471.93 163.527 470.162 164.233 468.323 164.233C466.484 164.233 464.716 163.527 463.383 162.26C462.401 161.282 461.732 160.035 461.459 158.676C461.187 157.318 461.324 155.909 461.853 154.628C462.382 153.347 463.279 152.253 464.431 151.482C465.583 150.712 466.937 150.301 468.323 150.301C469.708 150.301 471.063 150.712 472.215 151.482C473.367 152.253 474.263 153.347 474.792 154.628C475.321 155.909 475.459 157.318 475.187 158.676C474.914 160.035 474.244 161.282 473.263 162.26ZM592.703 272.99C606.643 252.99 607.523 230.54 594.643 217.66C581.763 204.78 559.403 205.66 539.493 219.54C538.826 217.333 538.039 215.213 537.133 213.18C556.223 207.08 568.943 193.24 568.943 177.57C568.943 161.9 556.373 147.93 536.673 141.84C550.553 121.93 551.403 99.51 538.553 86.66C525.703 73.81 503.223 74.66 483.223 88.66C477.223 68.75 463.343 56.03 447.373 56.03C431.643 56.03 417.793 68.84 411.733 88.03C409.771 87.1898 407.769 86.4489 405.733 85.81C419.543 65.87 420.423 43.45 407.573 30.63C394.723 17.81 372.243 18.63 352.273 32.63C346.273 12.72 332.363 0 316.423 0C295.543 0 279.003 21.54 277.633 49.81C269.529 50.1609 261.55 51.9381 254.063 55.06C234.733 47.06 212.063 50.06 195.913 64.51C192.932 67.1728 190.979 70.7962 190.393 74.75L165.393 248.24C165.382 248.279 165.382 248.321 165.393 248.36L161.243 277.08L141.243 415.69L12.593 544.29C7.09041 549.804 4 557.275 4 565.065C4 572.855 7.09041 580.326 12.593 585.84L39.7729 613.02C42.4977 615.747 45.7332 617.91 49.2944 619.386C52.8557 620.862 56.6728 621.622 60.5278 621.622C64.3828 621.622 68.2002 620.862 71.7615 619.386C75.3227 617.91 78.5582 615.747 81.283 613.02L203.653 490.66C208.593 497.93 213.653 508.87 212.493 522.32C210.953 540.72 198.493 559.6 175.623 578.44C174.581 579.297 173.829 580.454 173.469 581.754C173.109 583.055 173.16 584.434 173.614 585.705C174.068 586.975 174.904 588.074 176.006 588.852C177.108 589.63 178.424 590.048 179.773 590.05C181.293 590.052 182.764 589.513 183.923 588.53C209.683 567.38 223.683 545.47 225.523 523.44C226.544 510.349 223.314 497.278 216.313 486.17C230.013 493.96 239.223 509.78 243.743 533.29C257.833 606.59 300.433 621.59 302.253 622.2C302.92 622.411 303.614 622.522 304.313 622.53C305.858 622.525 307.351 621.974 308.528 620.974C309.705 619.974 310.49 618.589 310.744 617.065C310.998 615.541 310.704 613.977 309.915 612.649C309.126 611.321 307.893 610.315 306.433 609.81C304.923 609.26 269.133 596.08 256.583 530.81C251.713 505.38 241.923 490.2 231.583 481.14L549.813 434.26C553.783 433.689 557.429 431.751 560.123 428.78C560.123 428.78 560.123 428.78 560.183 428.72C574.363 412.84 577.513 390.72 570.033 371.6C573.285 363.995 575.131 355.864 575.483 347.6C603.693 346.26 625.303 329.69 625.303 308.78C625.343 292.87 612.613 279.02 592.703 272.99ZM412.193 118.81H412.253C416.893 118.81 421.583 114.09 421.583 109.45C421.596 105.851 421.931 102.26 422.583 98.72C425.643 81.57 436.103 69.09 447.433 69.09C457.703 69.09 467.313 79.24 471.283 94.33C471.743 96.1381 472.644 97.8043 473.904 99.1804C475.164 100.556 476.745 101.6 478.506 102.217C480.267 102.835 482.152 103.008 483.996 102.72C485.84 102.433 487.584 101.694 489.073 100.57C503.943 89.42 520.883 87.48 529.343 95.9C537.803 104.32 535.853 121.18 524.823 135.96C523.71 137.454 522.979 139.198 522.695 141.039C522.41 142.881 522.581 144.764 523.191 146.524C523.802 148.284 524.834 149.869 526.197 151.139C527.561 152.409 529.214 153.326 531.013 153.81C545.883 157.81 555.913 167.39 555.913 177.54C555.913 188.84 543.463 199.27 526.313 202.39C522.754 203.049 519.142 203.383 515.523 203.39C510.883 203.39 506.163 208.11 506.163 212.75C506.163 223.96 503.223 234.42 497.853 242.21C493.013 249.21 486.793 253.11 480.403 253.11C473.613 253.11 467.163 248.84 462.193 241.11C459.614 237.003 457.7 232.515 456.523 227.81C456.053 226.008 455.145 224.35 453.882 222.983C452.618 221.615 451.037 220.58 449.278 219.969C447.519 219.358 445.637 219.19 443.798 219.48C441.959 219.769 440.219 220.508 438.733 221.63C435.249 224.241 431.465 226.427 427.463 228.14C421.561 214.246 410.503 203.18 396.613 197.27C398.292 193.338 400.441 189.625 403.013 186.21C404.12 184.718 404.845 182.977 405.125 181.14C405.405 179.303 405.231 177.425 404.618 175.671C404.006 173.916 402.974 172.338 401.611 171.075C400.249 169.811 398.598 168.899 396.803 168.42C381.923 164.36 371.923 154.81 371.923 144.63C371.923 138.21 375.763 131.99 382.833 127.15C390.553 121.78 400.983 118.81 412.193 118.81ZM281.313 62.75C283.784 62.6333 286.113 61.557 287.803 59.75C288.672 58.9353 289.37 57.9563 289.857 56.8697C290.345 55.7831 290.612 54.6105 290.643 53.42C290.643 31.54 302.463 13.06 316.433 13.06C326.713 13.06 336.313 23.21 340.313 38.33C340.781 40.1331 341.687 41.7928 342.95 43.1618C344.213 44.5309 345.795 45.567 347.555 46.1783C349.315 46.7896 351.198 46.9572 353.038 46.6662C354.878 46.3751 356.618 45.6345 358.103 44.51C372.983 33.39 389.893 31.45 398.343 39.91C406.793 48.37 404.863 65.12 393.823 79.91C392.71 81.4062 391.981 83.1521 391.698 84.9953C391.415 86.8384 391.588 88.7227 392.202 90.4835C392.815 92.2444 393.851 93.8282 395.218 95.0966C396.585 96.365 398.241 97.2794 400.043 97.76C403.128 98.5832 406.122 99.7121 408.983 101.13C408.803 102.67 408.673 104.25 408.583 105.82C396.133 106.43 384.433 110.1 375.373 116.37C364.673 123.73 358.803 133.76 358.803 144.61C358.803 160.43 371.373 174.25 391.043 180.34C388.178 184.455 385.799 188.888 383.953 193.55C375.521 192.075 366.861 192.572 358.653 195C361.429 185.149 361.529 174.736 358.941 164.834C356.354 154.932 351.173 145.899 343.932 138.665C336.692 131.432 327.653 126.26 317.749 123.682C307.844 121.104 297.431 121.214 287.583 124C290.439 114.156 290.585 103.724 288.005 93.8036C285.425 83.8837 280.214 74.8445 272.923 67.64C271.653 66.37 270.343 65.19 268.983 64.04C273.038 63.1916 277.17 62.7593 281.313 62.75ZM72.043 603.75C68.9831 606.781 64.8502 608.482 60.543 608.482C56.2358 608.482 52.1028 606.781 49.043 603.75L21.863 576.56C18.8293 573.501 17.127 569.368 17.127 565.06C17.127 560.752 18.8293 556.619 21.863 553.56L147.473 427.95L197.683 478.16L72.043 603.75ZM368.503 431.72C367.933 436.72 367.323 442.26 367.963 447.84L209.233 471.2L154.413 416.39L177.353 257.17C182.933 257.81 188.353 257.17 193.413 256.63C204.233 255.39 211.203 254.96 217.753 261.51C224.303 268.06 223.873 275.02 222.633 285.84C221.383 296.42 219.873 309.6 231.233 320.96C242.593 332.32 255.783 330.81 266.353 329.6C277.173 328.36 284.143 327.9 290.683 334.45C297.223 341 296.813 347.99 295.563 358.81C294.353 369.39 292.843 382.57 304.203 393.9C315.563 405.23 328.713 403.75 339.293 402.54C350.143 401.29 357.083 400.87 363.623 407.39C370.163 413.91 369.703 420.9 368.503 431.72ZM550.503 419.96C550.503 419.96 550.443 419.96 550.443 420.02C549.791 420.732 548.91 421.193 547.953 421.32L380.873 445.93C380.645 441.687 380.846 437.432 381.473 433.23C382.683 422.66 384.203 409.51 372.873 398.14C361.543 386.77 348.353 388.32 337.773 389.54C326.933 390.78 319.963 391.2 313.413 384.66C306.863 378.12 307.293 371.14 308.533 360.33C309.743 349.72 311.263 336.57 299.933 325.2C288.603 313.83 275.413 315.36 264.843 316.6C253.993 317.84 247.023 318.26 240.473 311.69C233.923 305.12 234.353 298.17 235.603 287.33C236.813 276.75 238.323 263.6 226.963 252.27C215.603 240.94 202.453 242.42 191.873 243.63C187.681 244.26 183.435 244.455 179.203 244.21L203.383 76.57C203.523 75.6502 203.975 74.8065 204.663 74.18C221.353 59.27 247.263 60.45 263.663 76.84C280.063 93.23 281.233 119.18 266.323 135.84C265.262 137.029 264.676 138.567 264.676 140.16C264.676 141.753 265.262 143.291 266.323 144.48C266.366 144.538 266.406 144.598 266.443 144.66L266.663 144.87C266.753 144.93 266.783 145.03 266.873 145.09C266.94 145.119 267 145.16 267.053 145.21C268.245 146.264 269.782 146.847 271.373 146.847C272.965 146.847 274.501 146.264 275.693 145.21C292.383 130.27 318.323 131.45 334.693 147.84C351.063 164.23 352.273 190.18 337.363 206.84C336.302 208.029 335.716 209.567 335.716 211.16C335.716 212.753 336.302 214.291 337.363 215.48C337.423 215.54 337.453 215.63 337.513 215.66C337.568 215.747 337.644 215.819 337.733 215.87C337.783 215.951 337.843 216.025 337.913 216.09C337.965 216.14 338.027 216.181 338.093 216.21C339.283 217.264 340.818 217.845 342.408 217.845C343.998 217.845 345.533 217.264 346.723 216.21C363.423 201.27 389.363 202.45 405.723 218.84C422.083 235.23 423.293 261.18 408.383 277.84C407.322 279.029 406.736 280.567 406.736 282.16C406.736 283.753 407.322 285.291 408.383 286.48C408.443 286.54 408.473 286.63 408.533 286.69C408.596 286.757 408.667 286.818 408.743 286.87C408.813 286.93 408.843 287.02 408.933 287.09C408.988 287.137 409.048 287.177 409.113 287.21C410.305 288.264 411.842 288.847 413.433 288.847C415.025 288.847 416.561 288.264 417.753 287.21C434.443 272.27 460.383 273.45 476.753 289.84C493.123 306.23 494.333 332.17 479.423 348.84C478.362 350.029 477.776 351.567 477.776 353.16C477.776 354.753 478.362 356.291 479.423 357.48C479.483 357.54 479.513 357.63 479.573 357.69C479.636 357.757 479.707 357.818 479.783 357.87L479.963 358.08C480.023 358.128 480.086 358.171 480.153 358.21C481.343 359.264 482.878 359.845 484.468 359.845C486.058 359.845 487.592 359.264 488.783 358.21C505.483 343.27 531.423 344.45 547.783 360.84C564.143 377.23 565.373 403.26 550.503 419.96ZM571.983 334.63C570.775 334.639 569.581 334.897 568.477 335.388C567.372 335.878 566.38 336.59 565.563 337.48C564.66 338.309 563.93 339.308 563.416 340.42C562.901 341.532 562.611 342.735 562.563 343.96C562.567 348.137 562.131 352.304 561.263 356.39C559.967 354.749 558.571 353.189 557.083 351.72C549.882 344.43 540.846 339.219 530.93 336.637C521.014 334.055 510.585 334.198 500.743 337.05C503.517 327.206 503.616 316.801 501.033 306.905C498.449 297.01 493.275 287.981 486.043 280.75C478.812 273.518 469.783 268.344 459.888 265.76C449.992 263.177 439.587 263.277 429.743 266.05C432.149 257.848 432.649 249.205 431.203 240.78C435.92 238.88 440.41 236.462 444.593 233.57C446.124 238.719 448.358 243.632 451.233 248.17C458.533 259.63 469.233 266.17 480.443 266.17C491.293 266.17 501.323 260.3 508.683 249.6C514.923 240.54 518.623 228.84 519.203 216.36C520.833 216.27 522.473 216.15 524.053 215.96C525.557 218.941 526.743 222.071 527.593 225.3C528.086 227.093 529.009 228.739 530.283 230.094C531.556 231.45 533.142 232.473 534.901 233.076C536.66 233.68 538.54 233.844 540.377 233.555C542.215 233.267 543.953 232.534 545.443 231.42C560.233 220.42 577.073 218.51 585.443 226.9C593.813 235.29 591.923 252.3 580.803 267.14C579.681 268.629 578.944 270.37 578.654 272.211C578.365 274.052 578.533 275.936 579.144 277.697C579.755 279.458 580.789 281.041 582.156 282.308C583.523 283.574 585.181 284.485 586.983 284.96C602.113 288.96 612.293 298.54 612.293 308.81C612.253 322.81 593.733 334.63 571.973 334.63H571.983ZM539.143 273.17C534.497 273.166 529.992 274.773 526.398 277.718C522.804 280.663 520.343 284.764 519.434 289.32C518.524 293.877 519.223 298.608 521.412 302.707C523.6 306.806 527.142 310.019 531.434 311.799C535.726 313.578 540.502 313.815 544.949 312.467C549.396 311.119 553.238 308.271 555.82 304.408C558.402 300.545 559.564 295.906 559.109 291.282C558.654 286.658 556.609 282.335 553.323 279.05C551.462 277.183 549.25 275.703 546.815 274.693C544.38 273.684 541.769 273.167 539.133 273.17H539.143ZM544.083 298.17C542.746 299.441 540.972 300.15 539.128 300.15C537.283 300.15 535.509 299.441 534.173 298.17C533.195 297.19 532.53 295.943 532.261 294.586C531.992 293.228 532.132 291.821 532.662 290.543C533.192 289.265 534.09 288.173 535.241 287.404C536.392 286.636 537.744 286.226 539.128 286.226C540.512 286.226 541.864 286.636 543.015 287.404C544.166 288.173 545.064 289.265 545.594 290.543C546.124 291.821 546.264 293.228 545.995 294.586C545.726 295.943 545.06 297.19 544.083 298.17ZM468.293 177.39C472.938 177.387 477.439 175.774 481.028 172.825C484.617 169.876 487.073 165.774 487.977 161.218C488.881 156.661 488.177 151.933 485.985 147.837C483.794 143.741 480.25 140.532 475.958 138.756C471.666 136.98 466.891 136.747 462.446 138.096C458.001 139.446 454.162 142.295 451.582 146.158C449.002 150.021 447.841 154.659 448.297 159.281C448.753 163.904 450.798 168.226 454.083 171.51C455.94 173.387 458.152 174.876 460.589 175.891C463.027 176.905 465.642 177.425 468.283 177.42L468.293 177.39ZM463.353 152.39C463.985 151.673 464.758 151.093 465.623 150.686C466.488 150.278 467.428 150.053 468.384 150.023C469.34 149.993 470.291 150.159 471.18 150.511C472.069 150.863 472.877 151.394 473.553 152.07C474.229 152.746 474.76 153.553 475.112 154.443C475.464 155.332 475.63 156.283 475.6 157.239C475.57 158.195 475.345 159.134 474.938 160C474.53 160.865 473.95 161.638 473.233 162.27C471.9 163.537 470.132 164.243 468.293 164.243C466.454 164.243 464.686 163.537 463.353 162.27C462.046 160.958 461.312 159.182 461.312 157.33C461.312 155.478 462.046 153.702 463.353 152.39ZM338.103 112.3C342.073 112.299 345.954 111.121 349.254 108.915C352.555 106.708 355.127 103.572 356.645 99.9035C358.163 96.2349 358.559 92.1986 357.782 88.305C357.006 84.4115 355.092 80.8357 352.283 78.03C349.948 75.6978 347.074 73.9774 343.915 73.0211C340.757 72.0648 337.411 71.9021 334.175 72.5475C330.938 73.1929 327.911 74.6264 325.361 76.7211C322.811 78.8158 320.816 81.5071 319.554 84.5565C318.293 87.606 317.802 90.9195 318.127 94.2037C318.451 97.4878 319.581 100.641 321.415 103.385C323.249 106.128 325.732 108.377 328.643 109.932C331.553 111.487 334.803 112.301 338.103 112.3ZM333.103 87.3C334.426 86.0503 336.184 85.3652 338.004 85.3898C339.824 85.4144 341.562 86.1469 342.851 87.4319C344.14 88.7169 344.878 90.4534 344.908 92.2732C344.938 94.093 344.259 95.853 343.013 97.18C341.69 98.4297 339.932 99.1148 338.112 99.0902C336.292 99.0655 334.553 98.3331 333.264 97.0481C331.975 95.7631 331.238 94.0266 331.208 92.2068C331.177 90.387 331.857 88.627 333.103 87.3ZM482.503 143.11C479.222 139.853 474.913 137.833 470.311 137.394C465.709 136.956 461.096 138.125 457.259 140.703C453.421 143.282 450.596 147.11 449.263 151.537C447.929 155.964 448.171 160.716 449.946 164.984C451.722 169.253 454.921 172.775 459 174.951C463.08 177.127 467.787 177.822 472.321 176.919C476.855 176.015 480.936 173.569 483.87 169.996C486.804 166.422 488.409 161.943 488.413 157.32C488.42 154.678 487.9 152.061 486.886 149.621C485.871 147.182 484.381 144.968 482.503 143.11ZM473.263 162.26C471.93 163.527 470.162 164.233 468.323 164.233C466.484 164.233 464.716 163.527 463.383 162.26C462.401 161.282 461.732 160.035 461.459 158.676C461.187 157.318 461.324 155.909 461.853 154.628C462.382 153.347 463.279 152.253 464.431 151.482C465.583 150.712 466.937 150.301 468.323 150.301C469.708 150.301 471.063 150.712 472.215 151.482C473.367 152.253 474.263 153.347 474.792 154.628C475.321 155.909 475.459 157.318 475.187 158.676C474.914 160.035 474.244 161.282 473.263 162.26ZM352.323 78.02C349.988 75.6878 347.114 73.9674 343.955 73.0111C340.797 72.0548 337.451 71.8921 334.215 72.5375C330.978 73.1829 327.951 74.6165 325.401 76.7112C322.85 78.8059 320.856 81.4971 319.594 84.5465C318.333 87.596 317.842 90.9095 318.167 94.1936C318.492 97.4778 319.621 100.631 321.455 103.375C323.289 106.118 325.772 108.367 328.683 109.922C331.593 111.477 334.843 112.291 338.143 112.29C342.113 112.289 345.994 111.111 349.294 108.905C352.595 106.698 355.167 103.562 356.685 99.8935C358.203 96.2249 358.598 92.1886 357.822 88.295C357.046 84.4015 355.132 80.8257 352.323 78.02ZM343.083 97.17C341.76 98.4197 340.002 99.1048 338.182 99.0802C336.362 99.0556 334.623 98.3231 333.334 97.0381C332.046 95.7531 331.308 94.0166 331.278 92.1968C331.247 90.377 331.927 88.617 333.173 87.29C334.496 86.0403 336.254 85.3552 338.074 85.3798C339.894 85.4045 341.632 86.1369 342.921 87.4219C344.21 88.7069 344.948 90.4434 344.978 92.2632C345.008 94.083 344.329 95.843 343.083 97.17ZM553.353 279.04C550.543 276.222 546.96 274.301 543.057 273.521C539.155 272.74 535.108 273.135 531.43 274.655C527.752 276.176 524.608 278.753 522.396 282.062C520.184 285.37 519.003 289.26 519.003 293.24C519.003 297.22 520.184 301.11 522.396 304.418C524.608 307.727 527.752 310.304 531.43 311.825C535.108 313.345 539.155 313.74 543.057 312.959C546.96 312.179 550.543 310.258 553.353 307.44C555.223 305.578 556.707 303.365 557.718 300.927C558.729 298.489 559.247 295.876 559.244 293.237C559.24 290.598 558.714 287.985 557.696 285.551C556.678 283.116 555.189 280.906 553.313 279.05L553.353 279.04ZM544.113 298.19C542.776 299.461 541.002 300.17 539.158 300.17C537.313 300.17 535.54 299.461 534.203 298.19C533.226 297.21 532.56 295.963 532.292 294.606C532.023 293.248 532.162 291.842 532.692 290.563C533.223 289.285 534.12 288.193 535.271 287.424C536.421 286.656 537.774 286.245 539.158 286.245C540.542 286.245 541.895 286.656 543.045 287.424C544.196 288.193 545.093 289.285 545.624 290.563C546.154 291.842 546.293 293.248 546.024 294.606C545.756 295.963 545.09 297.21 544.113 298.19ZM553.353 279.04C550.543 276.222 546.96 274.301 543.057 273.521C539.155 272.74 535.108 273.135 531.43 274.655C527.752 276.176 524.608 278.753 522.396 282.062C520.184 285.37 519.003 289.26 519.003 293.24C519.003 297.22 520.184 301.11 522.396 304.418C524.608 307.727 527.752 310.304 531.43 311.825C535.108 313.345 539.155 313.74 543.057 312.959C546.96 312.179 550.543 310.258 553.353 307.44C555.223 305.578 556.707 303.365 557.718 300.927C558.729 298.489 559.247 295.876 559.244 293.237C559.24 290.598 558.714 287.985 557.696 285.551C556.678 283.116 555.189 280.906 553.313 279.05L553.353 279.04ZM544.113 298.19C542.776 299.461 541.002 300.17 539.158 300.17C537.313 300.17 535.54 299.461 534.203 298.19C533.226 297.21 532.56 295.963 532.292 294.606C532.023 293.248 532.162 291.842 532.692 290.563C533.223 289.285 534.12 288.193 535.271 287.424C536.421 286.656 537.774 286.245 539.158 286.245C540.542 286.245 541.895 286.656 543.045 287.424C544.196 288.193 545.093 289.285 545.624 290.563C546.154 291.842 546.293 293.248 546.024 294.606C545.756 295.963 545.09 297.21 544.113 298.19ZM482.503 143.11C479.222 139.853 474.913 137.833 470.311 137.394C465.709 136.956 461.096 138.125 457.259 140.703C453.421 143.282 450.596 147.11 449.263 151.537C447.929 155.964 448.171 160.716 449.946 164.984C451.722 169.253 454.921 172.775 459 174.951C463.08 177.127 467.787 177.822 472.321 176.919C476.855 176.015 480.936 173.569 483.87 169.996C486.804 166.422 488.409 161.943 488.413 157.32C488.42 154.678 487.9 152.061 486.886 149.621C485.871 147.182 484.381 144.968 482.503 143.11ZM473.263 162.26C471.93 163.527 470.162 164.233 468.323 164.233C466.484 164.233 464.716 163.527 463.383 162.26C462.401 161.282 461.732 160.035 461.459 158.676C461.187 157.318 461.324 155.909 461.853 154.628C462.382 153.347 463.279 152.253 464.431 151.482C465.583 150.712 466.937 150.301 468.323 150.301C469.708 150.301 471.063 150.712 472.215 151.482C473.367 152.253 474.263 153.347 474.792 154.628C475.321 155.909 475.459 157.318 475.187 158.676C474.914 160.035 474.244 161.282 473.263 162.26ZM352.323 78.02C349.988 75.6878 347.114 73.9674 343.955 73.0111C340.797 72.0548 337.451 71.8921 334.215 72.5375C330.978 73.1829 327.951 74.6165 325.401 76.7112C322.85 78.8059 320.856 81.4971 319.594 84.5465C318.333 87.596 317.842 90.9095 318.167 94.1936C318.492 97.4778 319.621 100.631 321.455 103.375C323.289 106.118 325.772 108.367 328.683 109.922C331.593 111.477 334.843 112.291 338.143 112.29C342.113 112.289 345.994 111.111 349.294 108.905C352.595 106.698 355.167 103.562 356.685 99.8935C358.203 96.2249 358.598 92.1886 357.822 88.295C357.046 84.4015 355.132 80.8257 352.323 78.02ZM343.083 97.17C341.76 98.4197 340.002 99.1048 338.182 99.0802C336.362 99.0556 334.623 98.3231 333.334 97.0381C332.046 95.7531 331.308 94.0166 331.278 92.1968C331.247 90.377 331.927 88.617 333.173 87.29C334.496 86.0403 336.254 85.3552 338.074 85.3798C339.894 85.4045 341.632 86.1369 342.921 87.4219C344.21 88.7069 344.948 90.4434 344.978 92.2632C345.008 94.083 344.329 95.843 343.083 97.17ZM482.503 143.11C479.222 139.853 474.913 137.833 470.311 137.394C465.709 136.956 461.096 138.125 457.259 140.703C453.421 143.282 450.596 147.11 449.263 151.537C447.929 155.964 448.171 160.716 449.946 164.984C451.722 169.253 454.921 172.775 459 174.951C463.08 177.127 467.787 177.822 472.321 176.919C476.855 176.015 480.936 173.569 483.87 169.996C486.804 166.422 488.409 161.943 488.413 157.32C488.42 154.678 487.9 152.061 486.886 149.621C485.871 147.182 484.381 144.968 482.503 143.11ZM473.263 162.26C471.93 163.527 470.162 164.233 468.323 164.233C466.484 164.233 464.716 163.527 463.383 162.26C462.401 161.282 461.732 160.035 461.459 158.676C461.187 157.318 461.324 155.909 461.853 154.628C462.382 153.347 463.279 152.253 464.431 151.482C465.583 150.712 466.937 150.301 468.323 150.301C469.708 150.301 471.063 150.712 472.215 151.482C473.367 152.253 474.263 153.347 474.792 154.628C475.321 155.909 475.459 157.318 475.187 158.676C474.914 160.035 474.244 161.282 473.263 162.26ZM352.323 78.02C349.988 75.6878 347.114 73.9674 343.955 73.0111C340.797 72.0548 337.451 71.8921 334.215 72.5375C330.978 73.1829 327.951 74.6165 325.401 76.7112C322.85 78.8059 320.856 81.4971 319.594 84.5465C318.333 87.596 317.842 90.9095 318.167 94.1936C318.492 97.4778 319.621 100.631 321.455 103.375C323.289 106.118 325.772 108.367 328.683 109.922C331.593 111.477 334.843 112.291 338.143 112.29C342.113 112.289 345.994 111.111 349.294 108.905C352.595 106.698 355.167 103.562 356.685 99.8935C358.203 96.2249 358.598 92.1886 357.822 88.295C357.046 84.4015 355.132 80.8257 352.323 78.02ZM343.083 97.17C341.76 98.4197 340.002 99.1048 338.182 99.0802C336.362 99.0556 334.623 98.3231 333.334 97.0381C332.046 95.7531 331.308 94.0166 331.278 92.1968C331.247 90.377 331.927 88.617 333.173 87.29C334.496 86.0403 336.254 85.3552 338.074 85.3798C339.894 85.4045 341.632 86.1369 342.921 87.4219C344.21 88.7069 344.948 90.4434 344.978 92.2632C345.008 94.083 344.329 95.843 343.083 97.17ZM482.503 143.11C479.222 139.853 474.913 137.833 470.311 137.394C465.709 136.956 461.096 138.125 457.259 140.703C453.421 143.282 450.596 147.11 449.263 151.537C447.929 155.964 448.171 160.716 449.946 164.984C451.722 169.253 454.921 172.775 459 174.951C463.08 177.127 467.787 177.822 472.321 176.919C476.855 176.015 480.936 173.569 483.87 169.996C486.804 166.422 488.409 161.943 488.413 157.32C488.42 154.678 487.9 152.061 486.886 149.621C485.871 147.182 484.381 144.968 482.503 143.11ZM473.263 162.26C471.93 163.527 470.162 164.233 468.323 164.233C466.484 164.233 464.716 163.527 463.383 162.26C462.401 161.282 461.732 160.035 461.459 158.676C461.187 157.318 461.324 155.909 461.853 154.628C462.382 153.347 463.279 152.253 464.431 151.482C465.583 150.712 466.937 150.301 468.323 150.301C469.708 150.301 471.063 150.712 472.215 151.482C473.367 152.253 474.263 153.347 474.792 154.628C475.321 155.909 475.459 157.318 475.187 158.676C474.914 160.035 474.244 161.282 473.263 162.26ZM352.323 78.02C349.988 75.6878 347.114 73.9674 343.955 73.0111C340.797 72.0548 337.451 71.8921 334.215 72.5375C330.978 73.1829 327.951 74.6165 325.401 76.7112C322.85 78.8059 320.856 81.4971 319.594 84.5465C318.333 87.596 317.842 90.9095 318.167 94.1936C318.492 97.4778 319.621 100.631 321.455 103.375C323.289 106.118 325.772 108.367 328.683 109.922C331.593 111.477 334.843 112.291 338.143 112.29C342.113 112.289 345.994 111.111 349.294 108.905C352.595 106.698 355.167 103.562 356.685 99.8935C358.203 96.2249 358.598 92.1886 357.822 88.295C357.046 84.4015 355.132 80.8257 352.323 78.02ZM343.083 97.17C341.76 98.4197 340.002 99.1048 338.182 99.0802C336.362 99.0556 334.623 98.3231 333.334 97.0381C332.046 95.7531 331.308 94.0166 331.278 92.1968C331.247 90.377 331.927 88.617 333.173 87.29C334.496 86.0403 336.254 85.3552 338.074 85.3798C339.894 85.4045 341.632 86.1369 342.921 87.4219C344.21 88.7069 344.948 90.4434 344.978 92.2632C345.008 94.083 344.329 95.843 343.083 97.17Z" fill="#282F39"/>
<path d="M375.373 116.361C384.433 110.091 396.133 106.421 408.583 105.811C408.673 104.241 408.803 102.661 408.983 101.121C406.122 99.7029 403.128 98.574 400.043 97.7508C398.241 97.2702 396.585 96.3558 395.218 95.0874C393.851 93.819 392.815 92.2352 392.202 90.4743C391.588 88.7135 391.415 86.8292 391.698 84.986C391.981 83.1429 392.71 81.397 393.823 79.9008C404.823 65.0908 406.743 48.2708 398.343 39.9008C389.943 31.5308 372.983 33.3808 358.103 44.5008C356.618 45.6253 354.878 46.3659 353.038 46.6569C351.198 46.9479 349.315 46.7804 347.555 46.1691C345.795 45.5578 344.213 44.5216 342.95 43.1526C341.687 41.7835 340.781 40.1239 340.313 38.3208C336.313 23.2008 326.713 13.0508 316.433 13.0508C302.433 13.0508 290.643 31.5308 290.643 53.4108C290.612 54.6013 290.345 55.7739 289.857 56.8604C289.37 57.947 288.672 58.9261 287.803 59.7408C286.113 61.5478 283.784 62.6241 281.313 62.7408C277.171 62.7369 273.04 63.1558 268.983 63.9908C270.343 65.1408 271.653 66.3208 272.923 67.5908C280.214 74.7953 285.425 83.8345 288.005 93.7544C290.585 103.674 290.439 114.107 287.583 123.951C297.431 121.165 307.844 121.055 317.749 123.633C327.653 126.211 336.692 131.383 343.932 138.616C351.173 145.85 356.354 154.883 358.941 164.785C361.529 174.687 361.429 185.1 358.653 194.951C366.861 192.522 375.521 192.026 383.953 193.501C385.799 188.839 388.178 184.406 391.043 180.291C371.373 174.201 358.803 160.381 358.803 144.561C358.803 133.751 364.673 123.721 375.373 116.361ZM352.283 106.421C350.419 108.285 348.206 109.765 345.771 110.774C343.335 111.783 340.724 112.303 338.088 112.303C335.451 112.303 332.841 111.783 330.405 110.774C327.97 109.765 325.757 108.285 323.893 106.421C320.128 102.656 318.013 97.5499 318.013 92.2258C318.013 86.9016 320.128 81.7955 323.893 78.0308C327.658 74.266 332.764 72.151 338.088 72.151C343.412 72.151 348.518 74.266 352.283 78.0308C354.148 79.8946 355.627 82.1075 356.636 84.5431C357.645 86.9787 358.165 89.5893 358.165 92.2258C358.165 94.8622 357.645 97.4728 356.636 99.9084C355.627 102.344 354.148 104.557 352.283 106.421Z" fill="#B1E0F4"/>
<path d="M530.983 153.81C529.184 153.326 527.53 152.408 526.167 151.138C524.804 149.869 523.772 148.284 523.161 146.524C522.551 144.764 522.381 142.881 522.665 141.039C522.949 139.198 523.68 137.454 524.793 135.96C535.793 121.18 537.703 104.33 529.313 95.8998C520.923 87.4698 503.913 89.4198 489.043 100.57C487.554 101.694 485.81 102.433 483.966 102.72C482.123 103.007 480.236 102.835 478.476 102.217C476.715 101.6 475.134 100.556 473.874 99.1802C472.614 97.8042 471.714 96.138 471.253 94.3298C467.253 79.2398 457.673 69.0898 447.403 69.0898C436.073 69.0898 425.613 81.5698 422.553 98.7198C421.901 102.26 421.566 105.851 421.553 109.45C421.553 114.09 416.863 118.81 412.223 118.81H412.163C400.953 118.81 390.523 121.81 382.773 127.12C375.703 131.96 371.863 138.18 371.863 144.6C371.863 154.78 381.863 164.33 396.743 168.39C398.538 168.869 400.189 169.781 401.551 171.044C402.914 172.308 403.946 173.886 404.558 175.641C405.171 177.395 405.345 179.273 405.065 181.11C404.785 182.947 404.06 184.687 402.953 186.18C400.381 189.595 398.232 193.308 396.553 197.24C410.455 203.144 421.525 214.21 427.433 228.11C431.436 226.397 435.219 224.211 438.703 221.6C440.189 220.478 441.928 219.739 443.768 219.45C445.607 219.16 447.489 219.328 449.248 219.939C451.007 220.55 452.588 221.585 453.852 222.953C455.116 224.32 456.023 225.978 456.493 227.78C457.67 232.484 459.584 236.973 462.163 241.08C467.163 248.81 473.583 253.08 480.373 253.08C486.763 253.08 492.983 249.21 497.823 242.18C503.193 234.39 506.133 223.93 506.133 212.72C506.133 208.08 510.853 203.36 515.493 203.36C519.113 203.353 522.724 203.019 526.283 202.36C543.433 199.24 555.853 188.81 555.883 177.51C555.883 167.39 545.853 157.84 530.983 153.81ZM482.503 171.54C479.222 174.797 474.913 176.817 470.311 177.255C465.709 177.694 461.096 176.525 457.259 173.947C453.421 171.368 450.596 167.54 449.263 163.113C447.929 158.686 448.171 153.934 449.946 149.665C451.722 145.397 454.921 141.875 459 139.699C463.08 137.523 467.787 136.828 472.321 137.731C476.855 138.635 480.936 141.081 483.87 144.654C486.804 148.227 488.409 152.707 488.413 157.33C488.42 159.972 487.9 162.589 486.886 165.029C485.871 167.468 484.381 169.682 482.503 171.54Z" fill="#B1E0F4"/>
<path d="M197.653 478.17L72.043 603.78C68.9831 606.812 64.8502 608.512 60.543 608.512C56.2358 608.512 52.1028 606.812 49.043 603.78L21.863 576.59C18.8293 573.532 17.127 569.398 17.127 565.09C17.127 560.782 18.8293 556.649 21.863 553.59L147.473 427.98L197.653 478.17Z" fill="#B3804B"/>
<path d="M368.503 431.718C367.933 436.718 367.323 442.258 367.963 447.838L209.233 471.198L154.413 416.388L177.353 257.168C182.933 257.808 188.353 257.168 193.413 256.628C204.233 255.388 211.203 254.958 217.753 261.508C224.303 268.058 223.873 275.018 222.633 285.838C221.383 296.418 219.873 309.598 231.233 320.958C242.593 332.318 255.783 330.808 266.353 329.598C277.173 328.358 284.143 327.898 290.683 334.448C297.223 340.998 296.813 347.988 295.563 358.808C294.353 369.388 292.843 382.568 304.203 393.898C315.563 405.228 328.713 403.748 339.293 402.538C350.143 401.288 357.083 400.868 363.623 407.388C370.163 413.908 369.703 420.898 368.503 431.718Z" fill="#FCD400"/>
<path d="M550.503 419.958C550.503 419.958 550.443 419.958 550.443 420.018C549.791 420.73 548.91 421.191 547.953 421.318L380.873 445.928C380.645 441.685 380.846 437.431 381.473 433.228C382.683 422.658 384.203 409.508 372.873 398.138C361.543 386.768 348.353 388.318 337.773 389.538C326.933 390.778 319.963 391.198 313.413 384.658C306.863 378.118 307.293 371.138 308.533 360.328C309.743 349.718 311.263 336.568 299.933 325.198C288.603 313.828 275.413 315.358 264.843 316.598C253.993 317.838 247.023 318.258 240.473 311.688C233.923 305.118 234.353 298.168 235.603 287.328C236.813 276.748 238.323 263.598 226.963 252.268C215.603 240.938 202.453 242.418 191.873 243.628C187.681 244.259 183.435 244.453 179.203 244.208L203.383 76.5682C203.523 75.6484 203.975 74.8047 204.663 74.1782C221.353 59.2682 247.263 60.4482 263.663 76.8382C280.063 93.2282 281.233 119.178 266.323 135.838C265.262 137.027 264.676 138.565 264.676 140.158C264.676 141.751 265.262 143.289 266.323 144.478C266.366 144.536 266.406 144.596 266.443 144.658L266.663 144.868C266.753 144.928 266.783 145.028 266.873 145.088C266.94 145.118 267 145.158 267.053 145.208C268.245 146.263 269.782 146.845 271.373 146.845C272.965 146.845 274.501 146.263 275.693 145.208C292.383 130.268 318.323 131.448 334.693 147.838C351.063 164.228 352.273 190.178 337.363 206.838C336.302 208.027 335.716 209.565 335.716 211.158C335.716 212.752 336.302 214.289 337.363 215.478C337.423 215.538 337.453 215.628 337.513 215.658C337.568 215.745 337.644 215.817 337.733 215.868C337.783 215.949 337.843 216.023 337.913 216.088C337.965 216.138 338.027 216.179 338.093 216.208C339.283 217.262 340.818 217.844 342.408 217.844C343.998 217.844 345.533 217.262 346.723 216.208C363.423 201.268 389.363 202.448 405.723 218.838C422.083 235.228 423.293 261.178 408.383 277.838C407.322 279.027 406.736 280.565 406.736 282.158C406.736 283.752 407.322 285.289 408.383 286.478C408.443 286.538 408.473 286.628 408.533 286.688C408.596 286.755 408.667 286.816 408.743 286.868C408.813 286.928 408.843 287.018 408.933 287.088C408.988 287.135 409.048 287.175 409.113 287.208C410.305 288.263 411.842 288.845 413.433 288.845C415.025 288.845 416.561 288.263 417.753 287.208C434.443 272.268 460.383 273.448 476.753 289.838C493.123 306.228 494.333 332.168 479.423 348.838C478.362 350.027 477.776 351.565 477.776 353.158C477.776 354.751 478.362 356.289 479.423 357.478C479.483 357.538 479.513 357.628 479.573 357.688C479.636 357.755 479.707 357.816 479.783 357.868L479.963 358.078C480.023 358.126 480.086 358.169 480.153 358.208C481.343 359.262 482.878 359.844 484.468 359.844C486.058 359.844 487.592 359.262 488.783 358.208C505.483 343.268 531.423 344.448 547.783 360.838C564.143 377.228 565.373 403.258 550.503 419.958Z" fill="#FCD400"/>
</g>
<defs>
<filter id="filter0_d_605_76" x="0" y="0" width="629.303" height="630.531" filterUnits="userSpaceOnUse" color-interpolation-filters="sRGB">
<feFlood flood-opacity="0" result="BackgroundImageFix"/>
<feColorMatrix in="SourceAlpha" type="matrix" values="0 0 0 0 0 0 0 0 0 0 0 0 0 0 0 0 0 0 127 0" result="hardAlpha"/>
<feOffset dy="4"/>
<feGaussianBlur stdDeviation="2"/>
<feComposite in2="hardAlpha" operator="out"/>
<feColorMatrix type="matrix" values="0 0 0 0 0 0 0 0 0 0 0 0 0 0 0 0 0 0 0.25 0"/>
<feBlend mode="normal" in2="BackgroundImageFix" result="effect1_dropShadow_605_76"/>
<feBlend mode="normal" in="SourceGraphic" in2="effect1_dropShadow_605_76" result="shape"/>
</filter>
</defs>
</svg>
