<svg width="200" height="200" viewBox="0 0 200 200" fill="none" xmlns="http://www.w3.org/2000/svg">
<rect width="200" height="200" fill="#FDFDFD"/>
<path d="M113.352 71.6812C113.352 79.042 107.361 85.0331 100 85.0331C92.6392 85.0331 86.6481 79.042 86.6481 71.6812C86.6481 64.3205 92.6392 58.3294 100 58.3294C107.361 58.3294 113.352 64.3205 113.352 71.6812ZM110.086 71.6812C110.086 66.1201 105.561 61.5956 100 61.5956C94.4389 61.5956 89.9143 66.1201 89.9143 71.6812C89.9143 77.2423 94.4389 81.7669 100 81.7669C105.561 81.7669 110.086 77.2423 110.086 71.6812ZM37.5 190.502C24.4421 190.502 13.6838 180.466 12.5321 167.704H187.468C186.316 180.466 175.558 190.502 162.5 190.502H37.5Z" fill="#FCD400" stroke="black" stroke-width="0.64"/>
<path d="M67.6177 109.348L67.6177 109.348L67.6114 109.351C48.2966 120.551 36.0601 141.013 35.2717 163.158H20.2754C21.4828 120.224 56.7841 85.67 100.003 85.67C143.222 85.67 178.52 120.224 179.728 163.155H39.8191C40.6037 142.627 51.9739 123.669 69.8917 113.283L69.8918 113.283L69.8981 113.279C70.4049 112.97 70.7704 112.474 70.9165 111.898C71.0625 111.323 70.9774 110.713 70.6794 110.199C70.3815 109.685 69.8942 109.309 69.322 109.149C68.7498 108.99 68.1381 109.062 67.6177 109.348ZM100 105.204H100.001C107.74 105.191 115.409 106.683 122.58 109.595C122.857 109.714 123.155 109.776 123.456 109.779C123.758 109.781 124.058 109.723 124.338 109.608C124.617 109.493 124.871 109.324 125.085 109.109C125.298 108.895 125.467 108.64 125.58 108.36C125.694 108.08 125.751 107.78 125.747 107.478C125.743 107.175 125.679 106.877 125.559 106.6C125.438 106.322 125.264 106.072 125.045 105.863C124.827 105.655 124.571 105.492 124.289 105.384C116.564 102.247 108.393 100.658 100 100.658C99.3971 100.658 98.819 100.898 98.3927 101.324C97.9664 101.75 97.7269 102.328 97.7269 102.931C97.7269 103.534 97.9664 104.112 98.3927 104.539C98.819 104.965 99.3971 105.204 100 105.204Z" fill="white" stroke="black" stroke-width="0.64"/>
<path d="M57.0312 71.5969C59.1886 71.5969 60.9375 69.848 60.9375 67.6906C60.9375 65.5333 59.1886 63.7844 57.0312 63.7844C54.8739 63.7844 53.125 65.5333 53.125 67.6906C53.125 69.848 54.8739 71.5969 57.0312 71.5969Z" stroke="#383434" stroke-width="0.642382" stroke-miterlimit="10" stroke-linecap="round" stroke-linejoin="round"/>
<path d="M139.062 16.9937C141.22 16.9937 142.969 15.2449 142.969 13.0875C142.969 10.9301 141.22 9.18124 139.062 9.18124C136.905 9.18124 135.156 10.9301 135.156 13.0875C135.156 15.2449 136.905 16.9937 139.062 16.9937Z" stroke="#383434" stroke-width="0.642382" stroke-miterlimit="10" stroke-linecap="round" stroke-linejoin="round"/>
<path d="M178.125 28.6281C180.282 28.6281 182.031 26.8792 182.031 24.7219C182.031 22.5645 180.282 20.8156 178.125 20.8156C175.968 20.8156 174.219 22.5645 174.219 24.7219C174.219 26.8792 175.968 28.6281 178.125 28.6281Z" stroke="#383434" stroke-width="0.642382" stroke-miterlimit="10" stroke-linecap="round" stroke-linejoin="round"/>
<path d="M142.969 71.5969C145.126 71.5969 146.875 69.848 146.875 67.6906C146.875 65.5333 145.126 63.7844 142.969 63.7844C140.811 63.7844 139.062 65.5333 139.062 67.6906C139.062 69.848 140.811 71.5969 142.969 71.5969Z" stroke="#383434" stroke-width="0.642382" stroke-miterlimit="10" stroke-linecap="round" stroke-linejoin="round"/>
<path d="M60.9375 16.9937C63.0949 16.9937 64.8438 15.2449 64.8438 13.0875C64.8438 10.9301 63.0949 9.18124 60.9375 9.18124C58.7801 9.18124 57.0312 10.9301 57.0312 13.0875C57.0312 15.2449 58.7801 16.9937 60.9375 16.9937Z" stroke="#383434" stroke-width="0.642382" stroke-miterlimit="10" stroke-linecap="round" stroke-linejoin="round"/>
<path d="M21.875 28.6281C24.0324 28.6281 25.7812 26.8792 25.7812 24.7219C25.7812 22.5645 24.0324 20.8156 21.875 20.8156C19.7176 20.8156 17.9688 22.5645 17.9688 24.7219C17.9688 26.8792 19.7176 28.6281 21.875 28.6281Z" stroke="#383434" stroke-width="0.642382" stroke-miterlimit="10" stroke-linecap="round" stroke-linejoin="round"/>
<path d="M76.9062 48.8125C79.0636 48.8125 80.8125 47.0636 80.8125 44.9062C80.8125 42.7489 79.0636 41 76.9062 41C74.7489 41 73 42.7489 73 44.9062C73 47.0636 74.7489 48.8125 76.9062 48.8125Z" stroke="#383434" stroke-width="0.642382" stroke-miterlimit="10" stroke-linecap="round" stroke-linejoin="round"/>
<path d="M103.906 24.8125C106.064 24.8125 107.812 23.0636 107.812 20.9062C107.812 18.7489 106.064 17 103.906 17C101.749 17 100 18.7489 100 20.9062C100 23.0636 101.749 24.8125 103.906 24.8125Z" stroke="#383434" stroke-width="0.642382" stroke-miterlimit="10" stroke-linecap="round" stroke-linejoin="round"/>
<path d="M173.906 65.8125C176.064 65.8125 177.812 64.0636 177.812 61.9062C177.812 59.7489 176.064 58 173.906 58C171.749 58 170 59.7489 170 61.9062C170 64.0636 171.749 65.8125 173.906 65.8125Z" stroke="#383434" stroke-width="0.642382" stroke-miterlimit="10" stroke-linecap="round" stroke-linejoin="round"/>
<path d="M146.906 48.8125C149.064 48.8125 150.812 47.0636 150.812 44.9062C150.812 42.7489 149.064 41 146.906 41C144.749 41 143 42.7489 143 44.9062C143 47.0636 144.749 48.8125 146.906 48.8125Z" stroke="#383434" stroke-width="0.642382" stroke-miterlimit="10" stroke-linecap="round" stroke-linejoin="round"/>
<path d="M29.9062 56.8125C32.0636 56.8125 33.8125 55.0636 33.8125 52.9062C33.8125 50.7489 32.0636 49 29.9062 49C27.7489 49 26 50.7489 26 52.9062C26 55.0636 27.7489 56.8125 29.9062 56.8125Z" stroke="#383434" stroke-width="0.642382" stroke-miterlimit="10" stroke-linecap="round" stroke-linejoin="round"/>
</svg>
