<svg width="36" height="36" viewBox="0 0 36 36" fill="none" xmlns="http://www.w3.org/2000/svg">
<rect width="36" height="36" rx="8" fill="white"/>
<path d="M13.6868 13.8002C13.7505 13.2863 13.9415 12.7724 14.0689 12.2585C15.2789 8.78967 17.89 6.60557 19.9916 7.37643C21.8385 8.01881 22.6664 10.5241 22.0296 13.5433C22.0296 13.5433 20.1827 14.2499 20.119 14.2499C20.0553 14.2499 17.4442 13.1579 17.4442 13.1579L14.7057 14.2499L13.6868 13.8002Z" fill="#FCD400" stroke="#383434" stroke-width="0.642382" stroke-miterlimit="10" stroke-linecap="round" stroke-linejoin="round"/>
<path d="M22.7939 28.5109H16.489H6.29932V13.0938L9.10149 14.1858L11.9673 13.0938L14.6421 14.1858L17.3806 13.0938L20.1828 14.1858L22.985 13.0938V20.4811" fill="white"/>
<path d="M22.7939 28.5109H16.489H6.29932V13.0938L9.10149 14.1858L11.9673 13.0938L14.6421 14.1858L17.3806 13.0938L20.1828 14.1858L22.985 13.0938V20.4811" stroke="#2D2A2E" stroke-width="0.642382" stroke-miterlimit="10" stroke-linecap="round" stroke-linejoin="round"/>
<path d="M13.3683 6.73443H9.10135C8.65555 6.73443 8.27344 6.349 8.27344 5.8351C8.27344 5.38543 8.65555 5 9.10135 5H13.3683C13.8141 5 14.1962 5.38543 14.1962 5.8351C14.1962 6.349 13.8778 6.73443 13.3683 6.73443Z" fill="#FCD400" stroke="#383434" stroke-width="0.642382" stroke-miterlimit="10" stroke-linecap="round" stroke-linejoin="round"/>
<path d="M13.4957 6.73468C13.8142 6.41349 13.4957 8.46911 14.3873 10.0108C14.5147 10.2678 14.6421 10.4605 14.7058 10.7174C14.7058 10.7174 13.8778 12.3876 13.6868 13.8651L12.031 13.0943L9.03773 14.1863L7.50928 13.5439C7.50928 12.7088 7.50928 12.0664 7.57296 11.6168C7.63665 11.0386 7.82771 10.4605 8.08245 9.94659C8.97405 8.40487 9.03773 7.18434 8.97405 6.73468H13.4957Z" fill="#F2F5F8" stroke="#383434" stroke-width="0.642382" stroke-miterlimit="10" stroke-linecap="round" stroke-linejoin="round"/>
<path d="M23.4778 27.7592C24.242 28.5943 25.3884 29.1082 26.6621 28.9798C28.8274 28.787 30.4195 26.9241 30.2921 24.6758C30.2285 23.5195 29.4642 22.7487 28.3179 22.7487C28.0632 21.5281 27.1079 20.8857 26.0889 21.0142C25.3247 21.0785 24.6241 21.3354 24.051 21.7851" fill="#FDF2CC"/>
<path d="M23.4778 27.7592C24.242 28.5943 25.3884 29.1082 26.6621 28.9798C28.8274 28.787 30.4195 26.9241 30.2921 24.6758C30.2285 23.5195 29.4642 22.7487 28.3179 22.7487C28.0632 21.5281 27.1079 20.8857 26.0889 21.0142C25.3247 21.0785 24.6241 21.3354 24.051 21.7851" stroke="#383434" stroke-width="0.642382" stroke-miterlimit="10" stroke-linecap="round" stroke-linejoin="round"/>
<path d="M29.0184 20.3721C29.0184 20.3721 29.3368 21.5926 28.3179 22.8131" stroke="#383434" stroke-width="0.642382" stroke-miterlimit="10" stroke-linecap="round" stroke-linejoin="round"/>
<path d="M24.8789 24.4845C24.8789 26.9898 22.9046 28.9811 20.4209 28.9811C17.9371 28.9811 15.9629 26.9255 15.9629 24.4845C15.9629 23.1355 16.7271 22.2361 18.0008 22.1719C18.1919 20.7587 19.2109 19.9878 20.3572 19.9878C22.9046 19.9236 24.8789 21.9792 24.8789 24.4845Z" fill="#FDF2CC" stroke="#383434" stroke-width="0.642382" stroke-miterlimit="10" stroke-linecap="round" stroke-linejoin="round"/>
<path d="M17.0455 19.4092C17.0455 19.4092 16.7907 20.7582 18.0644 22.1072L17.0455 19.4092Z" fill="#FDF2CC"/>
<path d="M17.0455 19.4092C17.0455 19.4092 16.7907 20.7582 18.0644 22.1072" stroke="#383434" stroke-width="0.642382" stroke-miterlimit="10" stroke-linecap="round" stroke-linejoin="round"/>
</svg>
