<svg width="155" height="25" viewBox="0 0 155 25" fill="none" xmlns="http://www.w3.org/2000/svg">
<path d="M42.8919 6.02389C42.6399 5.30665 42.2037 4.77842 41.7385 4.40041C40.9583 3.80918 40.115 3.74618 39.3978 3.74618C38.6176 3.74618 37.6192 3.87218 36.776 4.61849C36.1509 5.18065 35.6856 6.11596 35.6856 7.08036C35.6856 7.73459 35.9328 8.42275 36.5579 8.98006C36.965 9.35322 37.8664 9.85238 38.3026 10.0705L40.1732 10.9428C41.1424 11.3789 42.0729 11.9411 42.8241 12.7213C44.0114 13.9377 44.2294 15.0281 44.2294 16.3705C44.2294 17.5869 44.0114 19.4866 42.4848 21.081C40.7402 22.8886 38.5546 23.0776 37.091 23.0776C35.4094 23.0776 34.0331 22.7675 32.7876 21.5172C31.8814 20.5818 31.198 19.2104 31.043 17.7129L33.3498 17.0877C33.4128 18.1491 33.815 19.1134 34.4741 19.8016C35.3803 20.7369 36.4077 20.892 37.4351 20.892C38.4334 20.892 39.7128 20.7369 40.6772 19.7386C41.4574 18.9293 41.8015 17.7129 41.8015 16.7146C41.8015 15.4691 41.2393 14.5629 40.6772 14.0637C40.2701 13.6906 39.3057 13.1284 38.6515 12.8182L36.9989 12.038C36.4368 11.7909 35.2204 11.1657 34.5371 10.4485C33.9749 9.85722 33.3498 8.85891 33.3498 7.23543C33.3498 5.77189 33.7859 4.45857 34.9732 3.30517C36.2817 2.02578 37.8131 1.56055 39.5577 1.56055C40.464 1.56055 41.8645 1.68655 42.9888 2.43286C43.7981 2.9611 44.4863 3.83826 44.8595 4.80265L42.8919 6.02389Z" fill="#2D2A2E"/>
<path d="M54.6494 1.91016C56.7721 1.91016 58.6088 2.47231 59.6701 3.49971C60.5133 4.30902 61.1046 5.68049 61.1046 7.42997C61.1046 9.45567 60.3243 10.9822 59.4229 11.8594C58.5506 12.7026 56.8641 13.667 53.53 13.667H51.7514L50.6271 22.71H48.3203L50.8791 1.91016H54.6494ZM51.9986 11.4814H53.9613C55.0856 11.4814 56.6121 11.3554 57.7025 10.3571C58.3277 9.79491 58.8269 8.85959 58.8269 7.48812C58.8269 6.08273 58.2647 5.27341 57.6735 4.83725C56.8302 4.18302 55.5508 4.09094 54.6155 4.09094H52.9L51.9986 11.4814Z" fill="#2D2A2E"/>
<path d="M76.6644 4.90514H68.3677L67.7425 10.1778H75.7872L75.4141 13.1727H67.3694L66.5601 19.7199H74.8567L74.4836 22.7149H63.0078L65.5666 1.91504H77.0424L76.6644 4.90514Z" fill="#2D2A2E"/>
<path d="M92.8812 4.90514H84.5845L83.9593 10.1778H92.004L91.6309 13.1727H83.5862L82.7769 19.7199H91.0735L90.7004 22.7149H79.2246L81.7834 1.91504H93.2592L92.8812 4.90514Z" fill="#2D2A2E"/>
<path d="M103.765 1.91016C105.917 1.91016 109.377 2.22031 111.717 4.56102C113.089 5.93249 114.213 8.2102 114.213 11.4814C114.213 16.2549 112.032 18.8427 110.971 19.8411C108.567 22.1188 105.296 22.71 101.521 22.71H95.1289L97.6877 1.91016H103.765ZM100.426 18.6537H101.889C103.295 18.6537 105.505 18.5617 107.191 17.0642C108.378 16.0029 109.28 14.0692 109.28 11.6074C109.28 9.76583 108.689 8.30228 107.782 7.42997C106.784 6.46073 105.068 5.96642 103.45 5.96642H101.986L100.426 18.6537Z" fill="#2D2A2E"/>
<path d="M121.852 13.0128L115.77 1.91016H121.26L124.657 8.36528L129.615 1.91016H135.479L126.654 13.0128L125.467 22.71H120.664L121.852 13.0128Z" fill="#2D2A2E"/>
<path d="M145.645 13.604L144.521 22.71H139.248L140.401 13.4489L135.1 1.91016H140.93L142.364 5.24433C143.207 7.24096 143.27 7.36697 143.488 8.05028C143.551 8.20536 143.614 8.45736 143.706 8.73844C143.988 8.2102 144.269 7.7692 144.734 7.08589L148.32 1.91016H154.712L145.645 13.604Z" fill="#2D2A2E"/>
<path d="M18.2149 14.5773L18.216 14.5773C20.5131 14.5588 22.389 16.4099 22.4044 18.704L22.4044 18.706C22.4229 21.0031 20.5718 22.8791 18.2777 22.8945L18.2768 22.8945L5.68962 22.9867L5.68854 22.9867C3.39146 23.0052 1.51549 21.1541 1.5001 18.86C1.48469 16.565 3.33357 14.6883 5.62826 14.6695C5.62846 14.6695 5.62865 14.6695 5.62885 14.6695L18.2149 14.5773Z" stroke="#F5BF00" stroke-width="3"/>
<path d="M5.65856 24.4861C8.78369 24.4861 11.3171 21.9526 11.3171 18.8275C11.3171 15.7024 8.78369 13.1689 5.65856 13.1689C2.53342 13.1689 0 15.7024 0 18.8275C0 21.9526 2.53342 24.4861 5.65856 24.4861Z" fill="#2D2A2E"/>
<path d="M6.22091 9.91248L6.21983 9.91249C3.92275 9.93097 2.0468 8.07985 2.0314 5.78574L2.03139 5.78374C2.01291 3.48665 3.86404 1.61069 6.15814 1.5953L6.15906 1.59529L18.7462 1.50308L18.7473 1.50307C21.0444 1.48459 22.9203 3.33572 22.9357 5.62983L22.9357 5.63184C22.9542 7.92398 21.1078 9.80119 18.8081 9.82027C18.808 9.82027 18.8079 9.82027 18.8078 9.82027C18.8076 9.82027 18.8073 9.82028 18.807 9.82028L6.22091 9.91248Z" stroke="#F5BF00" stroke-width="3"/>
<path d="M18.7777 11.3171C21.9028 11.3171 24.4363 8.78369 24.4363 5.65856C24.4363 2.53342 21.9028 0 18.7777 0C15.6526 0 13.1191 2.53342 13.1191 5.65856C13.1191 8.78369 15.6526 11.3171 18.7777 11.3171Z" fill="#2D2A2E"/>
</svg>
