<svg width="124" height="23" viewBox="0 0 124 23" fill="none" xmlns="http://www.w3.org/2000/svg">
<path d="M11.8919 5.02389C11.6399 4.30665 11.2037 3.77842 10.7385 3.40041C9.95827 2.80918 9.11503 2.74618 8.3978 2.74618C7.61756 2.74618 6.61925 2.87218 5.77601 3.61849C5.15085 4.18065 4.68562 5.11596 4.68562 6.08036C4.68562 6.73459 4.93277 7.42275 5.55793 7.98006C5.96501 8.35322 6.8664 8.85238 7.30256 9.07045L9.17319 9.94277C10.1424 10.3789 11.0729 10.9411 11.8241 11.7213C13.0114 12.9377 13.2294 14.0281 13.2294 15.3705C13.2294 16.5869 13.0114 18.4866 11.4848 20.081C9.74019 21.8886 7.55456 22.0776 6.09101 22.0776C4.40938 22.0776 3.03307 21.7675 1.7876 20.5172C0.88136 19.5818 0.198047 18.2104 0.0429688 16.7129L2.34975 16.0877C2.41276 17.1491 2.81499 18.1134 3.47407 18.8016C4.38031 19.7369 5.4077 19.892 6.43509 19.892C7.43341 19.892 8.7128 19.7369 9.67719 18.7386C10.4574 17.9293 10.8015 16.7129 10.8015 15.7146C10.8015 14.4691 10.2393 13.5629 9.67719 13.0637C9.27011 12.6906 8.30572 12.1284 7.65148 11.8182L5.99894 11.038C5.43678 10.7909 4.22038 10.1657 3.53707 9.44846C2.97491 8.85722 2.34975 7.85891 2.34975 6.23543C2.34975 4.77189 2.78591 3.45857 3.97323 2.30518C5.2817 1.02578 6.8131 0.560547 8.55772 0.560547C9.46396 0.560547 10.8645 0.686547 11.9888 1.43286C12.7981 1.9611 13.4863 2.83826 13.8595 3.80265L11.8919 5.02389Z" fill="#2D2A2E"/>
<path d="M23.6494 0.910156C25.7721 0.910156 27.6088 1.47231 28.6701 2.49971C29.5133 3.30902 30.1046 4.68049 30.1046 6.42997C30.1046 8.45567 29.3243 9.98222 28.4229 10.8594C27.5506 11.7026 25.8641 12.667 22.53 12.667H20.7514L19.6271 21.71H17.3203L19.8791 0.910156H23.6494V0.910156ZM20.9986 10.4814H22.9613C24.0856 10.4814 25.6121 10.3554 26.7025 9.35706C27.3277 8.79491 27.8269 7.85959 27.8269 6.48812C27.8269 5.08273 27.2647 4.27341 26.6735 3.83725C25.8302 3.18302 24.5508 3.09094 23.6155 3.09094H21.9L20.9986 10.4814Z" fill="#2D2A2E"/>
<path d="M45.6644 3.90514H37.3677L36.7425 9.17779H44.7872L44.4141 12.1727H36.3694L35.5601 18.7199H43.8567L43.4836 21.7149H32.0078L34.5666 0.915039H46.0424L45.6644 3.90514Z" fill="#2D2A2E"/>
<path d="M61.8812 3.90514H53.5845L52.9593 9.17779H61.004L60.6309 12.1727H52.5862L51.7769 18.7199H60.0735L59.7004 21.7149H48.2246L50.7834 0.915039H62.2592L61.8812 3.90514Z" fill="#2D2A2E"/>
<path d="M72.7648 0.910156C74.9165 0.910156 78.3767 1.22031 80.7174 3.56102C82.0889 4.93249 83.2132 7.2102 83.2132 10.4814C83.2132 15.2549 81.0324 17.8427 79.9711 18.8411C77.5674 21.1188 74.2962 21.71 70.521 21.71H64.1289L66.6877 0.910156H72.7648V0.910156ZM69.4258 17.6537H70.8893C72.2947 17.6537 74.5046 17.5617 76.1911 16.0642C77.3784 15.0029 78.2798 13.0692 78.2798 10.6074C78.2798 8.76583 77.6885 7.30228 76.7823 6.42997C75.784 5.46073 74.0684 4.96642 72.4498 4.96642H70.9863L69.4258 17.6537Z" fill="#2D2A2E"/>
<path d="M90.8515 12.0128L84.7695 0.910156H90.2603L93.6574 7.36528L98.6151 0.910156H104.479L95.6541 12.0128L94.4668 21.71H89.6642L90.8515 12.0128Z" fill="#2D2A2E"/>
<path d="M114.645 12.604L113.521 21.71H108.248L109.401 12.4489L104.1 0.910156H109.93L111.364 4.24433C112.207 6.24096 112.27 6.36697 112.488 7.05028C112.551 7.20536 112.614 7.45736 112.706 7.73844C112.988 7.2102 113.269 6.7692 113.734 6.08589L117.32 0.910156H123.712L114.645 12.604Z" fill="#2D2A2E"/>
</svg>
