<svg width="200" height="200" viewBox="0 0 200 200" fill="none" xmlns="http://www.w3.org/2000/svg">
<path d="M174.002 80.8248C143.214 87.2517 161.269 16.2015 119.327 46.359C102.647 58.3484 78.6331 43.8365 55.6323 51.7727C34.5093 59.0569 39.7103 82.9576 41.7582 90.7804C45.8892 106.582 25.326 100.276 13.4075 107.064C-5.28501 117.714 11.1117 160.633 28.7697 160.817C46.4278 160.994 176.177 160.463 176.177 160.463C176.177 160.463 183.887 154.433 187.975 142.004C196.372 116.531 201.113 75.1702 174.002 80.8248Z" fill="white"/>
<path fill-rule="evenodd" clip-rule="evenodd" d="M127.461 59.4041C129.885 50.6955 133.782 44.049 139.139 39.4573C140.209 38.5432 141.839 39.4786 141.598 40.8674C141.591 40.8887 141.591 40.917 141.584 40.9383C141.364 42.0933 139.061 44.7859 136.241 48.0879C133.293 51.5529 129.764 55.684 127.461 59.4041ZM147.238 67.6166C147.103 65.1861 145.02 63.9178 140.988 63.8186C137.502 67.2836 135.369 68.9842 134.583 68.9204C133.796 68.8566 134.994 67.0852 138.182 63.606C136.73 63.1454 133.917 63.4288 129.75 64.4492C128.999 69.1897 128.248 71.4359 127.504 71.1737C126.76 70.9186 127.199 68.8354 128.822 64.924C127.291 65.0515 125.683 65.8097 123.989 67.2056C121.736 69.5794 122.197 72.1516 125.357 74.9221C125.059 76.559 124.216 78.2029 122.813 79.861C122.515 80.1586 122.189 80.5767 121.835 81.1152L122.423 81.2428C122.501 81.094 122.593 80.9522 122.678 80.8176C122.678 80.8176 122.678 80.8105 122.685 80.8105C122.742 80.7255 122.827 80.6121 122.933 80.4704C123.189 80.1586 123.366 79.9248 123.479 79.7547C124.251 78.7627 125.328 77.4943 125.91 77.303C126.462 79.6697 131.408 81.0939 134.335 81.1081C137.041 81.1223 136.34 80.2295 135.235 78.8194C135.15 78.706 135.057 78.5926 134.965 78.4722C134.193 77.4731 132.641 76.97 131.38 76.559C130.629 76.311 129.977 76.1055 129.665 75.8433C128.836 75.1418 130.31 74.9292 132.145 75.4678C132.96 75.7087 133.52 76.2472 134.15 76.8566C134.937 77.6148 135.837 78.4793 137.474 78.9965C139.444 79.613 141.598 78.1958 143.929 74.7308C141.711 74.9363 138.218 73.0019 138.225 72.2508C138.232 71.7477 140.726 72.1445 142.639 72.4492C143.568 72.598 144.361 72.7255 144.659 72.7114C145.566 72.6688 147.444 71.2587 147.238 67.6166ZM125.846 76.9983C125.86 77.1259 125.888 77.2251 125.917 77.2959C125.888 77.1896 125.867 77.0904 125.846 76.9983ZM148.145 41.9445C139.656 45.6575 132.287 52.7008 126.051 63.0887C130.196 59.2411 136.007 55.3084 140.875 52.0064C145.516 48.8603 149.307 46.2952 149.98 44.9418C150.498 43.9002 150.462 43.1774 150.228 42.6743C149.853 41.9161 148.917 41.6043 148.145 41.9445ZM124.57 129.009C134.037 124.261 139.628 122.716 141.343 124.367C143.057 126.026 137.467 127.57 124.57 129.009ZM122.26 129.859C134.937 128.746 141.378 129.512 141.576 132.155C141.775 134.798 135.334 134.033 122.26 129.859ZM56.7301 46.1251C58.3456 41.1367 63.3766 39.6486 71.8301 41.6468C77.187 50.7735 80.7016 55.4856 82.3739 55.7761C84.0461 56.0666 82.5227 51.723 77.7893 42.731C81.0701 42.5751 86.7671 44.7009 94.8875 49.1083C93.853 59.397 94.186 64.4776 95.8796 64.35C97.5731 64.2225 97.7998 59.645 96.5527 50.6176C99.6634 51.723 102.604 54.1818 105.368 58.0152C108.755 64.1941 106.395 69.303 98.2817 73.3349C97.9982 76.9062 98.8627 80.8034 100.875 85.0124C101.336 85.799 101.789 86.8406 102.236 88.1586L100.946 88.0948C100.861 87.7405 100.762 87.4004 100.648 87.0744V87.0673C100.648 87.0603 100.641 87.0603 100.641 87.0532C100.563 86.8477 100.45 86.5572 100.308 86.2029C99.9539 85.4093 99.713 84.8282 99.5642 84.4101C99.5642 84.4101 99.5642 84.4101 99.5642 84.4031C98.5013 81.923 96.9495 78.6777 95.8512 77.962C95.9504 77.8344 96.0567 77.6431 96.1559 77.3809C96.1063 77.4731 96.0567 77.5652 96.0071 77.6644C95.9575 77.7636 95.9008 77.8557 95.8512 77.962C93.4066 82.5891 82.3172 82.8371 76.2233 81.2711C70.5759 79.8185 72.5387 78.3375 75.5998 76.0134C75.8478 75.8291 76.0958 75.6378 76.3509 75.4394C78.5121 73.7813 82.0196 73.5829 84.861 73.4199C86.5687 73.3207 88.0284 73.2428 88.822 72.8602C90.9265 71.854 87.9859 70.6068 83.8619 70.7202C82.0337 70.7698 80.567 71.5918 78.923 72.513C76.8681 73.6679 74.5227 74.9788 70.8239 75.1489C66.381 75.3544 62.6822 71.2162 59.7203 62.7344C64.2269 64.3784 72.567 62.2597 72.9567 60.6937C73.2189 59.645 67.8053 59.0994 63.6601 58.6813C61.6406 58.4758 59.9258 58.3058 59.3164 58.1215C57.4316 57.5547 54.3067 53.6078 56.7301 46.1251ZM134.937 99.4818C139.954 98.5536 142.859 99.5739 143.667 102.543C144.871 107 142.923 109.225 141.81 109.508C141.449 109.6 140.436 109.65 139.245 109.714C136.801 109.834 133.605 109.997 133.725 110.628C133.909 111.556 138.742 113.044 141.435 112.208C139.451 117.097 137.162 119.421 134.561 119.173C132.393 118.968 131.061 118.132 129.885 117.395C128.949 116.807 128.113 116.282 127.036 116.204C124.62 116.02 122.856 116.672 124.06 117.317C124.514 117.558 125.371 117.65 126.37 117.756C128.035 117.933 130.09 118.153 131.309 119.188C131.451 119.308 131.592 119.429 131.734 119.542C133.463 120.995 134.576 121.916 131.217 122.61C127.596 123.354 121.098 122.886 119.794 120.102L119.738 119.981C119.702 119.903 119.667 119.825 119.631 119.755C119.681 119.91 119.738 120.024 119.794 120.102C119.128 120.491 118.122 122.348 117.428 123.772C117.329 124.013 117.173 124.353 116.939 124.807C116.847 125.012 116.769 125.175 116.719 125.296V125.303V125.31C116.641 125.501 116.577 125.692 116.514 125.898H115.755C116.053 125.14 116.351 124.537 116.641 124.091C117.938 121.675 118.561 119.414 118.498 117.31C113.856 114.709 112.616 111.641 114.785 108.12C116.521 105.951 118.313 104.591 120.17 104.031C119.178 109.296 119.178 111.988 120.17 112.109C121.162 112.229 121.502 109.26 121.19 103.195C126.08 100.842 129.488 99.7582 131.408 99.9424C128.375 105.08 127.355 107.588 128.347 107.468C129.339 107.347 131.536 104.683 134.937 99.4818ZM65.715 97.3348C67.5006 93.9548 71.2986 93.5155 77.1161 96.0026C79.823 103.223 81.7574 107.05 82.9266 107.468C84.0957 107.886 83.536 104.577 81.2614 97.5261C83.6352 97.8237 87.4615 100.063 92.7476 104.244C90.721 111.507 90.3242 115.198 91.5572 115.312C92.7901 115.432 93.52 112.173 93.7538 105.533C95.8512 106.709 97.651 108.849 99.1603 111.946C100.826 116.807 98.4872 120.18 92.1595 122.065C91.5147 124.594 91.6422 127.499 92.5634 130.773C92.7972 131.39 92.9885 132.204 93.1444 133.196L92.2232 132.991C92.202 132.729 92.1736 132.474 92.1382 132.219C92.1382 132.219 92.1382 132.219 92.1382 132.212V132.204C92.1099 132.049 92.0603 131.829 92.0036 131.553C91.8477 130.943 91.7485 130.49 91.6918 130.171C91.2383 128.258 90.5297 125.735 89.8282 125.083C89.9203 125.005 90.0124 124.878 90.1187 124.708L90.0833 124.757C89.9983 124.863 89.9133 124.97 89.8282 125.09C87.497 128.109 79.497 126.904 75.3163 125.019C71.4404 123.276 73.0347 122.454 75.5289 121.165C75.7273 121.065 75.9328 120.959 76.1383 120.846C77.8956 119.925 80.4394 120.215 82.5014 120.456C83.7414 120.598 84.8043 120.725 85.4137 120.548C87.0505 120.088 85.0948 118.826 82.1188 118.394C80.7937 118.203 79.6458 118.607 78.3491 119.067C76.7264 119.634 74.8841 120.286 72.2056 119.946C68.9886 119.535 66.8487 116.105 65.7787 109.643C68.8115 111.386 75.0612 110.904 75.536 109.827C75.8549 109.104 72.0356 108.042 69.1091 107.227C67.6848 106.83 66.4732 106.49 66.0551 106.284C64.7938 105.632 63.0436 102.401 65.715 97.3348ZM66.7282 132.878C63.4829 134.706 62.3279 136.647 63.2703 138.688C64.6804 141.756 66.8204 142.089 67.5786 141.721C67.8266 141.6 68.4218 141.154 69.1162 140.63C70.5475 139.552 72.4111 138.149 72.6308 138.553C72.9638 139.163 70.9514 142.259 69.0524 143.053C72.4607 144.867 74.8345 145.094 76.1737 143.733C77.2933 142.599 77.6476 141.508 77.9594 140.544C78.2074 139.772 78.4341 139.092 78.9939 138.539C80.2623 137.299 81.5519 136.839 81.1834 137.767C81.0417 138.114 80.6024 138.568 80.0993 139.099C79.249 139.978 78.2003 141.062 78.0019 142.217C77.9806 142.351 77.9523 142.486 77.931 142.614C77.6405 144.236 77.4563 145.278 79.66 144.095C82.0408 142.812 85.4704 139.503 84.8894 137.328C85.4491 137.235 86.8805 137.802 87.9363 138.277C88.1064 138.369 88.3544 138.483 88.6945 138.624C88.8433 138.695 88.9637 138.752 89.0488 138.794L89.0559 138.801C89.1834 138.872 89.318 138.95 89.4456 139.035L89.8707 138.681C89.3464 138.397 88.9 138.199 88.5244 138.086C86.6608 137.342 85.2578 136.364 84.3012 135.159C85.683 131.524 84.939 129.221 82.0692 128.258C80.078 127.854 78.4341 127.932 77.1303 128.491C80.156 130.979 81.4173 132.488 80.9213 133.019C80.4253 133.551 78.838 132.049 76.1666 128.498C72.319 129.476 69.9027 130.461 68.9178 131.467C73.0276 132.927 74.7778 133.855 74.1684 134.245C73.559 134.656 71.079 134.196 66.7282 132.878ZM84.8114 137.065C84.8327 137.15 84.861 137.242 84.8823 137.335C84.8823 137.264 84.8539 137.172 84.8114 137.065Z" fill="#E7ECEF"/>
<path d="M102.973 106.596C102.888 106.723 102.513 107.311 102.995 107.984C103.023 108.027 103.044 108.062 103.058 108.091C108.777 111.527 125.924 125.423 125.924 135.223V155.516H74.1621V135.215C74.1621 125.359 91.5509 111.237 97.1416 107.984C97.3188 107.736 97.3825 107.495 97.3825 107.283C97.3825 107.007 97.3046 106.766 97.1416 106.574C91.5367 103.251 74.1621 89.2351 74.1621 79.3787V59.0776H125.924V79.3787C125.924 89.221 108.592 103.315 102.973 106.596Z" fill="#C4CACC"/>
<path d="M128.894 160.74H70.7754V158.238C70.7754 156.736 71.9942 155.51 73.5035 155.51H126.279C127.725 155.51 128.894 156.679 128.894 158.125V160.74Z" fill="#0D1D28"/>
<path d="M88.978 136.463C88.7158 141.005 89.5803 150.804 89.4952 155.509H74.1543V135.208C74.1543 125.352 91.5431 111.23 97.1338 107.977C97.311 107.729 97.3747 107.488 97.3747 107.276C97.3747 106.999 97.2968 106.759 97.1338 106.567C91.5289 103.244 74.1543 89.2281 74.1543 79.3716V59.0776H84.4147L91.7415 61.0829V77.1325C91.2596 80.2148 91.621 83.2688 92.8327 86.2945C94.6467 90.8366 98.551 105.405 98.4872 107.297C98.4305 109.189 89.4315 128.675 88.978 136.463Z" fill="#ACB8C1"/>
<path d="M119.213 72.5699C116.074 72.6195 110.681 73.1864 101.952 75.383C95.9783 76.8923 85.6754 75.7585 80.2264 74.972C78.3132 74.6957 76.6055 76.1837 76.6055 78.111V80.4494C76.6055 86.8975 93.9446 100.857 98.5363 104.435C99.2307 104.974 99.6346 105.81 99.6346 106.688V142.529C99.6346 143.755 99.0323 144.895 98.0261 145.597C95.624 147.276 92.3928 150.585 88.3397 155.51H111.319C107.209 150.756 103.999 147.496 101.697 145.739C100.903 145.136 100.442 144.201 100.442 143.209V106.688C100.442 105.81 100.839 104.981 101.527 104.435C106.026 100.835 122.99 86.8196 122.99 80.3785V76.29C122.99 74.2138 121.289 72.5345 119.213 72.5699Z" fill="#FCD400"/>
<path d="M126.18 61.0834H73.3901C71.9446 61.0834 70.7754 59.9142 70.7754 58.4687V55.854H128.894V58.3695C128.894 59.8646 127.675 61.0834 126.18 61.0834Z" fill="#1C2A38"/>
<path d="M198.859 160.853H0.808594" stroke="#0D1D28" stroke-width="0.809717"/>
</svg>
