<svg width="668" height="668" viewBox="0 0 668 668" fill="none" xmlns="http://www.w3.org/2000/svg">
<path d="M667.347 334.328C667.347 400.258 647.797 464.707 611.168 519.526C574.539 574.344 522.478 617.07 461.566 642.301C400.655 667.531 333.63 674.132 268.967 661.27C204.304 648.408 144.907 616.659 98.2877 570.04C51.6682 523.421 19.92 464.024 7.05767 399.361C-5.80461 334.698 0.796778 267.673 26.0271 206.761C51.2573 145.85 93.9833 93.7883 148.802 57.1596C203.621 20.531 268.07 0.980469 334 0.980469C377.776 0.980469 421.123 9.60276 461.566 26.355C502.01 43.1073 538.758 67.6615 569.712 98.6157C600.666 129.57 625.22 166.318 641.973 206.761C658.725 247.205 667.347 290.552 667.347 334.328ZM191.852 344.938C204.194 337.955 213.371 326.486 217.48 312.915C221.588 299.343 220.312 284.71 213.916 272.054C202.674 240.054 174.589 220.686 151.179 228.938C138.848 235.922 129.679 247.382 125.571 260.944C121.463 274.506 122.732 289.129 129.116 301.78C140.358 333.823 168.442 353.149 191.852 344.938ZM472.442 376.391C454.43 358.356 433.04 344.049 409.494 334.287C385.949 324.526 360.71 319.501 335.221 319.501C309.732 319.501 284.493 324.526 260.948 334.287C237.402 344.049 216.012 358.356 198 376.391C183.19 391.856 175.027 412.507 175.259 433.918C175.491 455.33 184.1 475.799 199.241 490.94C214.382 506.081 234.851 514.689 256.262 514.921C277.673 515.153 298.324 506.99 313.789 492.18C319.473 486.511 327.172 483.327 335.2 483.327C343.227 483.327 350.927 486.511 356.61 492.18C372.076 506.99 392.726 515.153 414.138 514.921C435.549 514.689 456.018 506.081 471.159 490.94C486.3 475.799 494.909 455.33 495.141 433.918C495.373 412.507 487.209 391.856 472.4 376.391H472.442ZM222 225.149C225.663 263.802 251.474 292.938 279.768 290.286C307.979 287.591 327.895 254.075 324.274 215.465C320.61 176.854 294.758 147.675 266.505 150.37C238.295 153.023 218.337 186.538 222 225.149ZM390.547 290.286C418.8 292.938 444.652 263.759 448.316 225.149C451.979 186.538 432.063 153.023 403.81 150.37C375.6 147.675 349.705 176.854 346.042 215.465C342.421 254.117 362.337 287.591 390.547 290.286ZM519.263 228.938C495.852 220.728 467.768 240.012 456.526 272.054C450.143 284.705 448.874 299.328 452.981 312.89C457.089 326.452 466.259 337.913 478.589 344.896C502 353.149 530.084 333.823 541.326 301.78C547.709 289.129 548.979 274.506 544.871 260.944C540.763 247.382 531.593 235.922 519.263 228.938Z" fill="#FFB905"/>
</svg>
