<svg width="374" height="285" viewBox="0 0 374 285" fill="none" xmlns="http://www.w3.org/2000/svg">
<path d="M305.429 128.216C272.786 103.341 225.247 96.7703 184.699 108.455V212.898C184.699 231.228 173.169 247.597 155.374 258.03C199.994 284.422 264.447 282.028 305.428 250.798C349.849 216.948 349.849 162.066 305.429 128.216Z" fill="#FEE187"/>
<path d="M225.049 285C225.045 285 225.045 285 225.04 285C197.335 284.998 170.071 277.897 148.272 265.003C145.439 263.327 143.783 260.745 143.792 258.012C143.801 255.278 145.469 252.701 148.311 251.035C164.075 241.794 173.117 227.894 173.117 212.899V108.455C173.117 104.785 176.097 101.497 180.603 100.198C194.829 96.0979 209.78 94.0194 225.042 94.0194C258.506 94.0194 289.962 103.947 313.62 121.973C337.292 140.012 350.328 163.996 350.328 189.507C350.328 215.017 337.291 239.001 313.62 257.039C289.96 275.07 258.502 285 225.049 285ZM173.976 256.935C189.397 263.697 207.103 267.345 225.041 267.346C225.043 267.346 225.046 267.346 225.047 267.346C252.316 267.346 277.953 259.253 297.237 244.557C316.533 229.852 327.161 210.302 327.161 189.507C327.161 168.711 316.533 149.161 297.237 134.457C277.956 119.763 252.317 111.672 225.041 111.672C215.24 111.672 205.599 112.721 196.282 114.799V212.896C196.283 229.406 188.297 244.931 173.976 256.935Z" fill="#FFC61B"/>
<path d="M188.092 226.456C185.127 226.456 182.164 225.595 179.902 223.871C175.379 220.424 175.379 214.835 179.902 211.387L253.71 155.143C258.235 151.696 265.566 151.696 270.092 155.143C274.615 158.59 274.615 164.179 270.092 167.627L196.284 223.871C194.021 225.594 191.058 226.456 188.092 226.456Z" fill="#FFC61B"/>
<path d="M109.977 278.665C62.3886 278.665 23.6723 249.162 23.6723 212.898V65.7671C23.6723 29.5031 62.3886 0 109.977 0C157.566 0 196.282 29.5031 196.282 65.7671C196.282 70.6421 191.095 74.5937 184.699 74.5937C178.303 74.5937 173.116 70.6421 173.116 65.7671C173.116 39.237 144.792 17.6533 109.977 17.6533C75.1623 17.6533 46.8384 39.237 46.8384 65.7671V212.898C46.8384 239.428 75.1623 261.012 109.977 261.012C144.792 261.012 173.116 239.428 173.116 212.898C173.116 208.023 178.303 204.071 184.699 204.071C191.095 204.071 196.282 208.023 196.282 212.898C196.283 249.162 157.567 278.665 109.977 278.665Z" fill="#FFC61B"/>
<path d="M134.782 148.159H85.1741C78.7781 148.159 73.5911 144.207 73.5911 139.332C73.5911 134.457 78.7781 130.506 85.1741 130.506H134.782C141.178 130.506 146.365 134.457 146.365 139.332C146.365 144.207 141.178 148.159 134.782 148.159Z" fill="#FFC61B"/>
</svg>
