<svg width="206" height="206" viewBox="0 0 206 206" fill="none" xmlns="http://www.w3.org/2000/svg">
<path d="M173.76 205.77H32.2405C14.5605 205.77 0.230469 191.44 0.230469 173.76V32.2405C0.230469 14.5605 14.5605 0.230469 32.2405 0.230469H173.77C191.45 0.230469 205.78 14.5605 205.78 32.2405V173.77C205.77 191.44 191.44 205.77 173.76 205.77Z" fill="#F5BF00"/>
<path d="M78.8601 87.2307L124.9 86.8907C136.33 86.8107 145.67 96.0007 145.75 107.441C145.83 118.871 136.64 128.211 125.2 128.291L79.1601 128.631C67.7301 128.711 58.3901 119.521 58.3101 108.081C58.2301 96.6507 67.4301 87.3207 78.8601 87.2307Z" fill="#FCFCFD"/>
<path d="M79.0106 128.63C90.4428 128.63 99.7106 119.363 99.7106 107.93C99.7106 96.4982 90.4428 87.2305 79.0106 87.2305C67.5783 87.2305 58.3105 96.4982 58.3105 107.93C58.3105 119.363 67.5783 128.63 79.0106 128.63Z" fill="#2D2A2E"/>
<path d="M127.141 80.4606L81.1005 80.8006C69.6705 80.8806 60.3305 71.6906 60.2505 60.2506C60.1705 48.8206 69.3605 39.4806 80.8005 39.4006L126.841 39.0606C138.271 38.9806 147.611 48.1706 147.691 59.6106C147.771 71.0406 138.571 80.3806 127.141 80.4606Z" fill="#FCFCFD"/>
<path d="M126.99 80.4605C138.422 80.4605 147.69 71.1928 147.69 59.7606C147.69 48.3283 138.422 39.0605 126.99 39.0605C115.558 39.0605 106.29 48.3283 106.29 59.7606C106.29 71.1928 115.558 80.4605 126.99 80.4605Z" fill="#2D2A2E"/>
<path d="M46.9404 155.241C46.6704 154.451 46.1904 153.871 45.6704 153.461C44.8104 152.811 43.8904 152.741 43.1004 152.741C42.2404 152.741 41.1504 152.881 40.2204 153.701C39.5304 154.321 39.0204 155.341 39.0204 156.411C39.0204 157.131 39.2904 157.881 39.9804 158.501C40.4304 158.911 41.4204 159.461 41.9004 159.701L43.9504 160.661C45.0104 161.141 46.0404 161.761 46.8604 162.611C48.1604 163.951 48.4004 165.151 48.4004 166.621C48.4004 167.961 48.1604 170.051 46.4804 171.791C44.5604 173.781 42.1604 173.981 40.5504 173.981C38.7004 173.981 37.1904 173.641 35.8204 172.271C34.8304 171.241 34.0704 169.741 33.9004 168.091L36.4404 167.401C36.5104 168.561 36.9504 169.631 37.6704 170.381C38.6604 171.411 39.7904 171.581 40.9204 171.581C42.0204 171.581 43.4204 171.411 44.4804 170.311C45.3404 169.421 45.7104 168.081 45.7104 166.991C45.7104 165.621 45.0904 164.631 44.4804 164.081C44.0304 163.671 42.9704 163.051 42.2504 162.711L40.4304 161.851C39.8104 161.581 38.4804 160.891 37.7204 160.101C37.1004 159.451 36.4204 158.351 36.4204 156.571C36.4204 154.961 36.9004 153.521 38.2004 152.251C39.6404 150.851 41.3204 150.331 43.2404 150.331C44.2304 150.331 45.7804 150.471 47.0104 151.291C47.9004 151.871 48.6504 152.831 49.0704 153.891L46.9404 155.241Z" fill="#2D2A2E"/>
<path d="M59.8504 150.721C62.1804 150.721 64.2004 151.341 65.3604 152.471C66.2804 153.361 66.9404 154.871 66.9404 156.791C66.9404 159.021 66.0804 160.701 65.0904 161.651C64.1304 162.571 62.2804 163.641 58.6204 163.641H56.6704L55.4404 173.571H52.9004L55.7104 150.721H59.8504ZM56.9404 161.231H59.1004C60.3304 161.231 62.0104 161.091 63.2104 160.001C63.9004 159.381 64.4404 158.361 64.4404 156.851C64.4404 155.311 63.8204 154.421 63.1704 153.941C62.2504 153.221 60.8404 153.121 59.8104 153.121H57.9304L56.9404 161.231Z" fill="#2D2A2E"/>
<path d="M84.0403 154H74.9303L74.2403 159.79H83.0803L82.6703 163.08H73.8303L72.9403 170.27H82.0503L81.6403 173.56H69.0303L71.8403 150.71H84.4503L84.0403 154Z" fill="#2D2A2E"/>
<path d="M101.851 154H92.7408L92.0508 159.79H100.891L100.481 163.08H91.6408L90.7508 170.27H99.8608L99.4508 173.56H86.8408L89.6508 150.71H102.261L101.851 154Z" fill="#2D2A2E"/>
<path d="M113.81 150.72C116.17 150.72 119.98 151.06 122.55 153.63C124.06 155.14 125.29 157.64 125.29 161.23C125.29 166.47 122.89 169.31 121.73 170.41C119.09 172.91 115.5 173.56 111.35 173.56H104.33L107.14 150.71H113.81V150.72ZM110.14 169.11H111.75C113.29 169.11 115.72 169.01 117.57 167.36C118.87 166.19 119.86 164.07 119.86 161.36C119.86 159.34 119.21 157.73 118.22 156.77C117.12 155.71 115.24 155.16 113.46 155.16H111.85L110.14 169.11Z" fill="#2D2A2E"/>
<path d="M133.68 162.911L127 150.721H133.03L136.76 157.811L142.21 150.721H148.65L138.95 162.911L137.65 173.561H132.37L133.68 162.911Z" fill="#2D2A2E"/>
<path d="M159.82 163.56L158.59 173.56H152.8L154.07 163.39L148.25 150.72H154.66L156.24 154.39C157.16 156.58 157.23 156.72 157.47 157.47C157.54 157.64 157.61 157.92 157.71 158.22C158.02 157.64 158.33 157.16 158.84 156.4L162.78 150.71H169.8L159.82 163.56Z" fill="#2D2A2E"/>
</svg>
