<svg width="15" height="15" viewBox="0 0 15 15" fill="none" xmlns="http://www.w3.org/2000/svg">
<path d="M11.178 8.28246L11.1783 8.28246C12.8005 8.26944 14.1231 9.5735 14.1339 11.1875L14.1339 11.1882C14.1469 12.8043 12.8418 14.1257 11.2219 14.1366L11.2215 14.1366L3.49523 14.1931L3.49484 14.1931C1.87272 14.2061 0.550117 12.902 0.539263 11.2881C0.528407 9.67377 1.83168 8.35205 3.45189 8.33894C3.45194 8.33894 3.45199 8.33894 3.45204 8.33894L11.178 8.28246Z" stroke="#0D1D28" stroke-width="1.07839"/>
<path d="M3.47336 14.7318C5.39165 14.7318 6.94672 13.1799 6.94672 11.2656C6.94672 9.35121 5.39165 7.79932 3.47336 7.79932C1.55508 7.79932 0 9.35121 0 11.2656C0 13.1799 1.55508 14.7318 3.47336 14.7318Z" fill="#2D2A2E"/>
<path d="M3.82143 6.45479L3.82104 6.45479C2.19892 6.46781 0.876324 5.16375 0.86547 3.54978L0.865464 3.54906C0.85244 1.93297 2.15755 0.611518 3.77753 0.600668L3.77786 0.600665L11.5042 0.544178L11.5045 0.544175C13.1267 0.531155 14.4493 1.83522 14.4601 3.44919L14.4601 3.44992C14.4731 5.06317 13.1708 6.38507 11.5477 6.3983C11.5476 6.3983 11.5475 6.3983 11.5473 6.3983L3.82143 6.45479Z" stroke="#0D1D28" stroke-width="1.07839"/>
<path d="M11.5261 6.93249C13.4444 6.93249 14.9995 5.3806 14.9995 3.46624C14.9995 1.55189 13.4444 0 11.5261 0C9.60781 0 8.05273 1.55189 8.05273 3.46624C8.05273 5.3806 9.60781 6.93249 11.5261 6.93249Z" fill="#2D2A2E"/>
</svg>
