<svg width="288" height="288" viewBox="0 0 288 288" fill="none" xmlns="http://www.w3.org/2000/svg">
<path d="M122.98 120.65L167.37 120.32C178.39 120.24 187.39 129.11 187.47 140.13C187.55 151.15 178.68 160.15 167.66 160.23L123.27 160.56C112.25 160.64 103.25 151.77 103.17 140.75C103.09 129.73 111.96 120.73 122.98 120.65Z" fill="#F5BF00"/>
<path d="M123.131 160.56C134.155 160.56 143.091 151.623 143.091 140.6C143.091 129.576 134.155 120.64 123.131 120.64C112.107 120.64 103.171 129.576 103.171 140.6C103.171 151.623 112.107 160.56 123.131 160.56Z" fill="#2D2A2E"/>
<path d="M169.531 114.121L125.141 114.45C114.121 114.53 105.121 105.66 105.041 94.6405C104.961 83.6205 113.831 74.6205 124.851 74.5405L169.241 74.2105C180.261 74.1305 189.261 83.0005 189.341 94.0205C189.431 105.04 180.561 114.041 169.531 114.121Z" fill="#F5BF00"/>
<path d="M169.391 114.12C180.414 114.12 189.351 105.184 189.351 94.1602C189.351 83.1366 180.414 74.2002 169.391 74.2002C158.367 74.2002 149.431 83.1366 149.431 94.1602C149.431 105.184 158.367 114.12 169.391 114.12Z" fill="#2D2A2E"/>
<path d="M92.2102 186.21C91.9502 185.45 91.4802 184.89 90.9902 184.49C90.1602 183.86 89.2702 183.8 88.5102 183.8C87.6802 183.8 86.6302 183.93 85.7302 184.72C85.0702 185.31 84.5702 186.31 84.5702 187.33C84.5702 188.02 84.8302 188.75 85.5002 189.35C85.9302 189.75 86.8902 190.28 87.3502 190.51L89.3302 191.44C90.3502 191.9 91.3402 192.5 92.1402 193.32C93.3902 194.61 93.6301 195.76 93.6301 197.19C93.6301 198.48 93.4002 200.49 91.7802 202.18C89.9302 204.1 87.6202 204.29 86.0702 204.29C84.2902 204.29 82.8302 203.96 81.5102 202.64C80.5502 201.65 79.8302 200.2 79.6602 198.61L82.1002 197.95C82.1702 199.07 82.6002 200.1 83.2902 200.82C84.2502 201.81 85.3402 201.98 86.4302 201.98C87.4902 201.98 88.8402 201.81 89.8702 200.76C90.7002 199.9 91.0602 198.61 91.0602 197.56C91.0602 196.24 90.4702 195.28 89.8702 194.75C89.4402 194.35 88.4202 193.76 87.7202 193.43L85.9702 192.6C85.3802 192.34 84.0902 191.67 83.3602 190.91C82.7702 190.28 82.1002 189.23 82.1002 187.51C82.1002 185.96 82.5602 184.57 83.8202 183.35C85.2102 182 86.8302 181.5 88.6802 181.5C89.6402 181.5 91.1201 181.63 92.3102 182.42C93.1701 182.98 93.9002 183.91 94.2902 184.93L92.2102 186.21Z" fill="#2D2A2E"/>
<path d="M104.66 181.85C106.91 181.85 108.86 182.44 109.98 183.54C110.87 184.4 111.5 185.85 111.5 187.7C111.5 189.85 110.67 191.47 109.72 192.39C108.8 193.28 107.01 194.31 103.48 194.31H101.6L100.41 203.89H97.9697L100.68 181.86H104.66V181.85ZM101.85 191.99H103.93C105.12 191.99 106.74 191.86 107.89 190.8C108.55 190.21 109.08 189.21 109.08 187.76C109.08 186.27 108.49 185.41 107.86 184.95C106.97 184.26 105.61 184.16 104.62 184.16H102.8L101.85 191.99Z" fill="#2D2A2E"/>
<path d="M127.98 185.02H119.19L118.53 190.6H127.05L126.65 193.77H118.13L117.27 200.71H126.06L125.66 203.88H113.5L116.21 181.85H128.37L127.98 185.02Z" fill="#2D2A2E"/>
<path d="M145.16 185.02H136.37L135.71 190.6H144.23L143.83 193.77H135.31L134.45 200.71H143.24L142.84 203.88H130.68L133.39 181.85H145.55L145.16 185.02Z" fill="#2D2A2E"/>
<path d="M156.68 181.85C158.96 181.85 162.631 182.18 165.101 184.66C166.551 186.11 167.741 188.53 167.741 191.99C167.741 197.04 165.431 199.79 164.301 200.84C161.761 203.25 158.29 203.88 154.29 203.88H147.521L150.23 181.85H156.68ZM153.15 199.59H154.701C156.191 199.59 158.531 199.49 160.321 197.9C161.581 196.78 162.531 194.73 162.531 192.12C162.531 190.17 161.901 188.62 160.941 187.69C159.881 186.67 158.071 186.14 156.351 186.14H154.801L153.15 199.59Z" fill="#2D2A2E"/>
<path d="M175.84 193.61L169.4 181.85H175.21L178.81 188.69L184.06 181.85H190.27L180.92 193.61L179.67 203.88H174.58L175.84 193.61Z" fill="#2D2A2E"/>
<path d="M201.05 194.24L199.86 203.89H194.28L195.5 194.08L189.88 181.86H196.06L197.58 185.4C198.47 187.51 198.54 187.65 198.77 188.37C198.84 188.54 198.9 188.8 199 189.1C199.3 188.54 199.59 188.08 200.09 187.35L203.89 181.87H210.66L201.05 194.24Z" fill="#2D2A2E"/>
</svg>
